<svg width="103" height="89" xmlns="http://www.w3.org/2000/svg"><g fill="none" fill-rule="evenodd"><path d="M74.23 18.181c3.008 1.736 5.468 5.998 5.468 9.47v33.327c0 3.473-2.46 7.735-5.468 9.471L45.368 87.113c-3.007 1.736-7.928 1.736-10.935 0L5.57 70.449C2.563 68.713.103 64.451.103 60.98V27.65c0-3.472 2.46-7.734 5.467-9.47L34.433 1.517c3.007-1.736 7.928-1.736 10.935 0L74.23 18.181z" fill="#36F"/><path d="M39.656 58.46a14.109 14.109 0 01-14.124-14.125 14.108 14.108 0 0114.124-14.124 14.109 14.109 0 0114.125 14.124A14.108 14.108 0 0139.656 58.46zm0-24.642c-5.51 0-10.518 5.008-10.518 10.517 0 5.51 5.009 10.518 10.518 10.518 5.51 0 10.518-5.008 10.518-10.518 0-5.51-5.008-10.517-10.518-10.517zm-1.403 15.827c-1.201.7-2.603-.101-2.603-1.503v-7.613c0-1.403 1.402-2.204 2.604-1.603l6.31 3.807a1.788 1.788 0 010 3.105l-6.31 3.807zm41.919 11.949c7.499 0 13.578 5.386 13.578 12.03 0 6.646-6.08 12.032-13.578 12.032-7.5 0-13.578-5.386-13.578-12.031 0-6.645 6.079-12.031 13.578-12.031z" fill="#FFF"/><path d="M79.53 88.973a23.05 23.05 0 01-15.472-5.605l-6.235 3.443-1.385-2.66 5.31-2.983a27.886 27.886 0 01-5.31-8.346c3.925-9.426 12.008-16.165 23.092-16.165a23.508 23.508 0 0115.472 5.605l6.004-3.443 1.616 2.65-5.31 2.987a33.327 33.327 0 015.31 8.352c-3.925 9.417-12.008 16.165-23.092 16.165zm0-26.963a10.853 10.853 0 00-9.93 14.664l3.926-2.182a4.153 4.153 0 01-.23-1.686 6.301 6.301 0 016.234-6.392c1.76 0 3.437.743 4.618 2.046l3.695-2.173a10.16 10.16 0 00-8.313-4.277zm6.004 9.108c.193.54.271 1.115.231 1.688a6.305 6.305 0 01-6.235 6.396 6.235 6.235 0 01-4.618-2.048l-3.695 2.17a10.161 10.161 0 008.313 4.284 10.853 10.853 0 009.93-14.677l-3.926 2.187z" fill="#0CF"/></g></svg>