<svg class="icon" viewBox="0 0 1024 1024" xmlns="http://www.w3.org/2000/svg" width="20" height="20"><defs><style/></defs><path d="M801.469 307.63C786.431 158.27 662.45 41.37 512.219 41.37s-274.206 116.9-289.25 266.265c-76.117 16.828-133.525 89.194-133.525 175.664v318.162c0 98.889 75.101 179.351 167.411 179.351h510.74c92.309 0 167.405-80.463 167.405-179.351V483.299c0-86.47-57.408-158.836-133.531-175.669zm-289.25-197.714c111.879 0 204.564 84.381 220.843 194.014H291.376c16.285-109.633 108.964-194.014 220.843-194.014zm355.626 691.545c0 61.095-44.972 110.805-100.251 110.805h-510.74c-55.284 0-100.262-49.709-100.262-110.805V483.299c0-61.108 44.978-110.823 100.262-110.823h510.74c55.279 0 100.251 49.716 100.251 110.823v318.162z" fill="#36f"/><path d="M476.066 605.066c-9.487 9.689-15.113 23.279-15.113 36.905 0 13.849 5.627 27.468 15.113 37.15 9.493 9.689 22.812 15.189 36.159 15.189 13.591 0 26.659-5.5 36.396-15.189 9.493-9.933 14.876-23.301 14.876-37.15 0-13.625-5.383-27.216-15.127-36.905-18.973-19.622-53.072-19.37-72.304 0z" fill="#36f"/></svg>