<svg class="icon" viewBox="0 0 1024 1024" xmlns="http://www.w3.org/2000/svg" width="20" height="20"><defs><style/></defs><path d="M901.513 911.113c.004.65.097 1.275.097 1.926h-.292c-1.51 21.572-19.299 38.657-41.256 38.657-21.956 0-39.746-17.085-41.255-38.657h-.718c.01-1.034.154-2.037.154-3.074 0-83.855-33.293-159.792-87.14-215.417l.076-.078c-7.417-7.26-12.045-17.354-12.045-28.55 0-22.085 17.903-39.991 39.988-39.991 11.746 0 22.202 5.157 29.519 13.22 68.333 69.115 111.135 163.556 112.677 268.097.067.976.292 1.91.292 2.903 0 .33-.088.635-.097.964zM512.001 605.455c-11.245 0-22.255-.92-33.136-2.273-153.508 16.661-273.06 147.568-273.1 306.703 0 .09.026.174.026.264 0 .047-.014.092-.014.14.024.922.129 1.824.137 2.749h-.415c-1.511 21.572-19.302 38.657-41.257 38.657-21.958 0-39.747-17.085-41.256-38.657h-.597c.003-160.12 96.67-297.542 234.761-357.451-67.552-48.36-111.725-127.297-111.725-216.71 0-147.225 119.35-266.573 266.575-266.573s266.576 119.348 266.576 266.573-119.35 266.578-266.575 266.578zm0-451.494c-101.926 0-184.552 82.625-184.552 184.552S410.075 523.065 512 523.065s184.554-82.626 184.554-184.552S613.927 153.96 512.001 153.96z" fill="#36f"/></svg>