<svg class="icon" viewBox="0 0 1024 1024" xmlns="http://www.w3.org/2000/svg" width="48" height="48"><defs><style/></defs><path d="M954.88 237.056H69.12a43.52 43.52 0 1 1 0-87.04h885.248c24.064 0 43.52 19.456 43.52 43.52s-18.944 43.52-43.008 43.52zm0 318.464H69.12a43.52 43.52 0 1 1 0-87.04h885.248c24.064 0 43.52 19.456 43.52 43.52s-18.944 43.52-43.008 43.52zm0 318.976H69.12a43.52 43.52 0 1 1 0-87.04h885.248c24.064 0 43.52 19.456 43.52 43.52.512 24.064-18.944 43.52-43.008 43.52z" fill="#fff"/></svg>