<svg class="icon" viewBox="0 0 1024 1024" xmlns="http://www.w3.org/2000/svg" width="24" height="24"><defs><style/></defs><path d="M446.864 616q-.576 1.728-7.136-.288t-18.016-6.56L410.288 604q-25.152-11.424-49.728-28-4-2.848-23.424-18.016t-21.728-16.288q-38.272 58.848-76.576 103.424-46.272 54.272-60 62.848-2.272 1.152-11.136 2.272t-10.56 0q3.424-2.272 46.848-52.576 12-13.728 48.864-65.728t44.864-67.424q9.728-17.152 29.152-56.288t20.576-44.288q-4.576-.576-62.848 18.848-4.576 1.152-15.712 4.288t-19.712 5.44-9.728 2.848q-1.152 1.152-1.152 6.016t-.576 5.44q-2.848 5.728-17.728 8.576-13.152 4-26.848 0-10.272-2.272-16-12-2.272-3.424-2.848-13.152 3.424-1.152 14.016-2.848t16.864-3.424q33.152-9.152 60-18.272 57.152-20 58.272-20 5.728-1.152 24.576-11.136t25.152-12.288q5.152-1.728 12.288-4.576t8.288-3.136 3.424.288q1.152 6.848-.576 18.848 0 1.152-7.136 15.424t-15.136 30.56-9.728 19.136q-14.272 28.576-44 74.848l36.576 16q6.848 3.424 42.56 18.272t38.56 16q2.272.576 6.016 14.56t2.56 17.44zM329.712 338.272q1.728 8.576-2.272 16-6.848 13.152-28.576 21.728-17.152 6.848-34.272 6.848-14.848-1.728-28-14.848-8-8.576-10.272-23.424l.576-1.728q1.728 1.728 11.136 2.848t15.136 0 33.152-9.152q20.576-6.848 31.424-8 9.728 0 12 9.728zM728.56 412l36 129.728-79.424-24zM95.408 869.152l396.576-132.576V146.848L95.408 280v589.152zM804.56 688l58.272 17.728-103.424-375.424-57.152-17.728-123.424 306.272 58.272 17.728 25.728-62.848 120.576 37.152zM517.136 138.272L844.56 243.424V26.272zm177.728 756l90.272 7.424-30.848 91.424-22.848-37.728q-74.272 47.424-157.728 61.728-33.152 6.848-52 6.848h-48q-45.152 0-114.016-22.272T254.832 953.12q-4.576-4-4.576-9.152 0-4.576 2.848-7.712t7.424-3.136q2.272 0 10.272 4.288t17.44 9.44 11.712 6.272q41.728 21.152 91.136 35.136t90.016 14.016q54.272 0 95.424-8.288t89.728-28.864q8.576-4 17.44-8.864t19.424-10.848 16.288-9.44zm256-616.544v616.576L508.592 753.728q-8 3.424-214.272 72.864t-210.272 69.44q-7.424 0-10.272-7.424 0-.576-.576-1.728v-616q1.728-5.152 2.272-5.728 2.848-3.424 11.424-6.272 60.576-20 85.152-28.576V10.88l318.848 113.152q1.152 0 91.712-31.424t180.576-62.016T855.472.032q11.424 0 11.424 12V250.88z" fill="#fff"/></svg>