<svg xmlns="http://www.w3.org/2000/svg" xmlns:xlink="http://www.w3.org/1999/xlink" width="32" height="24"><defs><path id="a" d="M16 0h16v22H0V0z"/></defs><g fill="none" fill-rule="evenodd"><g transform="translate(0 1)"><mask id="b" fill="#fff"><use xlink:href="#a"/></mask><path d="M29 0H3C1.4 0 0 1.3 0 3v16c0 1.7 1.3 3 3 3h26c1.7 0 3-1.3 3-3V3c0-1.7-1.3-3-3-3" fill="#22ADE7" mask="url(#b)"/></g><path d="M6 12.2h1.7l-.8-2-.9 2zm14.2-2v1.3h1.9v1h-1.9v1.3h2.1l1.5-1.8-1.3-1.7-2.3-.1zm6.1 4.8l-1.6-1.9L23 15h-4.2V9.1h4.4l1.5 1.9 1.6-1.9h1.6L25.5 12l2.3 3h-1.5zm-8.4 0h-1.6v-4.4L14.6 15h-1.3l-1.9-4.4V15H8.7l-.5-1.5H5.5L5 15H3.5l2.4-5.9h1.8l2.3 5.6V9.1h2.2l1.7 3.9 1.7-3.9h2.3V15zm8.9-3l1.8-2.3L30 8h-4.2l-.3.4-.8.9-.7-.9-.3-.4H15l-.3.6-.8 1.8-.8-1.8-.2-.6H9v1.5l-.3-.9-.3-.6H5.3l-.3.6-2.4 5.9L2 16h3.7l.2-.7.3-.8h1.3l.3.8.2.7h4.4v-.5l.2.5h2.6l.1-.1v.1h8.2l.3-.3.9-1 .9 1 .3.4H30l-1.3-1.7-1.9-2.4z" fill="#FFF"/></g></svg>