<svg width="34" height="39" xmlns="http://www.w3.org/2000/svg"><path d="M30.74 12.288c1.292 0 2.34 1.065 2.34 2.377v9.289c0 1.313-1.048 2.377-2.34 2.377-1.293 0-2.34-1.064-2.34-2.377v-9.289c0-1.312 1.047-2.377 2.34-2.377zm-28.23 0c1.293 0 2.34 1.065 2.34 2.377v9.289c0 1.313-1.047 2.377-2.34 2.377-1.292 0-2.34-1.064-2.34-2.377v-9.289c0-1.312 1.048-2.377 2.34-2.377zm3.75.072h20.824v16.97a1.825 1.825 0 01-1.826 1.825h-2.084v5.169c0 1.312-1.048 2.377-2.341 2.377-1.292 0-2.34-1.065-2.34-2.377v-5.169H14.85v5.169c0 1.312-1.048 2.377-2.34 2.377-1.293 0-2.34-1.065-2.34-2.377v-5.168H8.083A1.825 1.825 0 016.26 29.33V12.36zm15.3-8.793c3.058 1.422 5.203 4.126 5.476 7.28H6.213c.273-3.154 2.418-5.858 5.476-7.28L9.765.774C9.651.608 9.68.39 9.83.288c.15-.103.363-.052.477.114l1.998 2.9a11.785 11.785 0 014.321-.807c1.541 0 3.004.289 4.321.807l1.998-2.9c.114-.166.328-.217.477-.114.15.102.178.32.064.486L21.56 3.567zm-9.329 4.4a1.152 1.152 0 100-2.303 1.152 1.152 0 000 2.304zm8.93 0a1.152 1.152 0 100-2.304 1.152 1.152 0 000 2.305z" fill="#333" fill-rule="evenodd"/></svg>