<svg width="31" height="37" xmlns="http://www.w3.org/2000/svg"><path d="M18.18 8.625l-.003-.002c-.497.143-1.206.26-2.129.354l-.248.035V8.73c.024-2.023.557-3.762 1.596-5.222 1.017-1.482 2.72-2.494 5.108-3.036l.248-.07.074.248c0 .024.007.049.018.07a.158.158 0 01.018.073c.012.096.035.19.07.28v.459c0 .846-.2 1.775-.603 2.787-.402 1.012-1.028 1.953-1.879 2.823-.757.73-1.514 1.224-2.27 1.483zm12.06 18.067l.25.068-.073.248c-.542 1.74-1.406 3.505-2.59 5.292-1.844 2.8-3.712 4.2-5.605 4.2-.685 0-1.689-.234-3.014-.705-1.183-.425-2.213-.635-3.086-.635-.804 0-1.762.222-2.874.67-1.182.47-2.14.705-2.873.705-2.222 0-4.387-1.836-6.492-5.504-1.04-1.835-1.82-3.622-2.341-5.364A18.48 18.48 0 01.76 20.41c0-3.222.804-5.87 2.412-7.94.804-1.035 1.715-1.812 2.731-2.33 1.04-.518 2.176-.777 3.408-.777 1.038 0 2.303.212 3.794.637 1.395.423 2.33.635 2.803.635.592 0 1.561-.235 2.909-.705 1.442-.47 2.684-.707 3.725-.707 1.726-.024 3.264.437 4.611 1.376.735.495 1.479 1.212 2.236 2.153l.142.176-.177.176c-1.088.918-1.87 1.719-2.342 2.4a7.085 7.085 0 00-1.313 4.165 7.783 7.783 0 001.385 4.516c.921 1.317 1.974 2.152 3.156 2.506z" fill="#333" fill-rule="evenodd"/></svg>