<svg xmlns="http://www.w3.org/2000/svg" width="32" height="24"><g fill="none" fill-rule="evenodd"><path d="M2.58 23C1.136 23 0 21.848 0 20.381V3.619C0 2.153 1.135 1 2.58 1h26.84C30.864 1 32 2.153 32 3.619v16.762C32 21.848 30.865 23 29.42 23H2.58z" fill="#F2F2F2"/><path d="M29 22H9c9.8-2 18.5-4.8 22-8v6c0 1.1-.9 2-2 2" fill="#F16000"/><path d="M26.8 10V9h.8c.3 0 .5.1.6.4v.1c0 .3-.2.5-.5.5h-.9zm-.8 1.8h.8v-1.1h.6l.7 1.1h.9l-.8-1.3c.5-.2.8-.6.7-1.1 0-.3-.1-.6-.3-.8-.3-.3-.6-.4-1-.4H26v3.6zm-3.3 0h2.6v-.7h-1.9v-.7H25v-.7h-1.6v-.8h1.8v-.7h-2.6l.1 3.6zm-2.6 0h.7l1.4-3.6h-.8l-.9 2.5-.9-2.5h-.8l1.3 3.6zm-6.9.1c.5 0 1.1-.2 1.4-.6l-.5-.5c-.2.3-.6.4-.9.4-.6 0-1-.5-1-1.1 0-.6.4-1.1 1-1.1.3 0 .7.2.9.4l.5-.6c-.3-.4-.8-.6-1.4-.6-1 0-1.8.8-1.8 1.8v.1c0 .9.7 1.7 1.8 1.8-.1 0 0 0 0 0zm-3.5 0c.6.1 1.2-.3 1.3-1v-.2c0-.6-.5-1.1-1.1-1.1-.6-.1-.8-.2-.8-.4s.2-.3.4-.3c.3 0 .6.1.9.4l.4-.6c-.3-.4-.8-.5-1.2-.5-.6-.1-1.2.3-1.2.9v.1c0 .7.4.9 1.1 1.1.6.2.7.3.7.5s-.2.4-.5.3c-.4 0-.7-.2-1-.4l-.4.6c.3.4.9.6 1.4.6zm-2.8-.1h.8V8.2h-.8v3.6zm-3.1-.7V8.9h.6c.6 0 1 .4 1 1v.1c0 .6-.4 1-.9 1.1h-.7zm-.8.7h1.3c1 0 1.8-.7 1.8-1.7V10c0-1-.7-1.8-1.7-1.8H3v3.6z" fill="#000"/><path d="M16.7 11.9c1 0 1.8-.8 1.8-1.8V10c0-1-.8-1.8-1.8-1.9-1-.1-1.8.8-1.9 1.8v.1c.1 1 .9 1.8 1.9 1.9" fill="#F16000"/><path d="M10.5 14h12c.3 0 .5.2.5.5s-.2.5-.5.5h-12c-.3 0-.5-.2-.5-.5s.2-.5.5-.5" fill="#BFBFBF"/></g></svg>