<svg width="48" height="27" xmlns="http://www.w3.org/2000/svg"><g fill="none" fill-rule="evenodd"><path d="M4.48 24.476l38.771.005v-.005h4.05v1.156c-.519.837-3.61 1.27-4.719 1.27H4.84c-1.103 0-3.897-.433-4.414-1.27v-1.156H4.48zm37.165.005H6.085h35.56zm1.606-.817v.005V1.443c0-.675-.517-1.203-1.203-1.203H5.683C4.997.24 4.48.773 4.48 1.443v22.221" fill="#333"/><path d="M23.859 8.502h-.001a4.74 4.74 0 01-.716.108l-.083.01v-.085c.008-.617.187-1.146.536-1.59.342-.452.914-.76 1.717-.925l.084-.022.025.076a.04.04 0 00.006.021.045.045 0 01.006.022.32.32 0 00.023.086v.14c0 .257-.067.54-.203.848a2.6 2.6 0 01-.631.86c-.255.222-.51.373-.763.451zm4.053 5.502l.084.02-.024.076c-.182.53-.473 1.067-.87 1.611-.62.853-1.248 1.28-1.884 1.28-.23 0-.568-.072-1.014-.216-.397-.129-.744-.193-1.037-.193-.27 0-.592.068-.966.204-.397.144-.72.215-.966.215-.747 0-1.474-.56-2.182-1.676a7.575 7.575 0 01-.787-1.633 5.14 5.14 0 01-.263-1.601c0-.981.27-1.787.811-2.418.27-.315.577-.551.918-.709a2.75 2.75 0 011.145-.237c.35 0 .775.065 1.276.194.469.13.783.194.942.194.199 0 .525-.072.978-.215.485-.143.902-.215 1.252-.215a2.774 2.774 0 011.55.419c.247.15.497.369.751.655l.048.054-.06.053c-.365.28-.628.524-.787.731a2.02 2.02 0 00-.44 1.269c-.007.49.156.971.465 1.375.31.4.663.655 1.06.763z" fill="#FFF"/></g></svg>