<svg xmlns="http://www.w3.org/2000/svg" xmlns:xlink="http://www.w3.org/1999/xlink" width="32" height="24"><defs><path id="a" d="M16 0H0v22h32V0z"/></defs><g fill="none" fill-rule="evenodd"><g transform="translate(0 1)"><mask id="b" fill="#fff"><use xlink:href="#a"/></mask><path d="M29 0H3C1.4 0 0 1.3 0 3v16c0 1.7 1.3 3 3 3h26c1.7 0 3-1.3 3-3V3c0-1.7-1.3-3-3-3" fill="#32326F" mask="url(#b)"/></g><path d="M11.7 5.4a6.6 6.6 0 110 13.2 6.6 6.6 0 110-13.2" fill="#F22F12"/><path d="M20.5 5.5c3.6.1 6.5 3 6.4 6.6-.1 3.6-3 6.5-6.6 6.4-3.6-.1-6.4-2.9-6.4-6.5s3-6.5 6.6-6.5" fill="#F79F1A"/><path d="M13.9 12c0-1.9.8-3.6 2.2-4.8 2.7 2.3 2.9 6.4.6 9l-.6.6a6.236 6.236 0 01-2.2-4.8" fill="#FF5F01"/></g></svg>