<svg xmlns="http://www.w3.org/2000/svg" xmlns:xlink="http://www.w3.org/1999/xlink" width="32" height="24"><defs><path id="a" d="M0 22V0h32v22z"/></defs><g fill="none" fill-rule="evenodd"><path d="M3 22.5C1.6 22.5.5 21.4.5 20V4C.5 2.6 1.6 1.5 3 1.5h26c1.4 0 2.5 1.1 2.5 2.5v16c0 1.4-1.1 2.5-2.5 2.5H3z" fill="#F2F2F2"/><g transform="translate(0 1)"><mask id="b" fill="#fff"><use xlink:href="#a"/></mask><path d="M29 0H3C1.4 0 0 1.3 0 3v16c0 1.7 1.3 3 3 3h26c1.7 0 3-1.3 3-3V3c0-1.7-1.3-3-3-3m0 1c1.1 0 2 .9 2 2v16c0 1.1-.9 2-2 2H3c-1.1 0-2-.9-2-2V3c0-1.1.9-2 2-2h26" fill="#D8D8D8" mask="url(#b)"/></g><path d="M10.1 8.1l-2 5.3-.2-1.1c-.5-1.4-1.5-2.5-2.8-3.2l1.8 6.8H9l3.2-7.7-2.1-.1zm13.8 5c.2-.4.8-2.2.8-2.2s.2-.4.3-.7l.1.7s.4 1.8.5 2.2h-1.7zm2.5-5h-1.6c-.5-.1-.9.2-1.1.6l-3 7.1h2.1s.3-1 .4-1.2h2.6c.1.3.2 1.2.2 1.2h2l-1.6-7.7zm-5.2.2c-.6-.2-1.2-.3-1.8-.3-2 0-3.4 1-3.4 2.6.1 1 .8 1.8 1.8 2.1.8.4 1.1.6 1 1-.1.5-.7.9-1.2.8-.7 0-1.3-.1-1.9-.4l-.3-.1-.3 1.7c.7.3 1.5.4 2.3.4 2.1 0 3.5-1 3.5-2.6 0-.9-.5-1.6-1.7-2.1-.7-.4-1.1-.6-1.1-1 0-.3.4-.7 1.2-.7.5 0 1 .1 1.5.3h.1l.3-1.7zm-9.4 7.6l1.3-7.7h2l-1.3 7.7h-2z" fill="#00579D"/><path d="M6.3 8.1H3v.2c2.2.4 4.1 2 4.9 4l-.7-3.5a.96.96 0 00-.9-.7" fill="#F9A732"/></g></svg>