<?xml version="1.0" encoding="iso-8859-1"?>
<!-- Generator: Adobe Illustrator 19.0.0, SVG Export Plug-In . SVG Version: 6.00 Build 0)  -->
<svg version="1.1" id="Capa_1" xmlns="http://www.w3.org/2000/svg" xmlns:xlink="http://www.w3.org/1999/xlink" x="0px" y="0px"
	 viewBox="0 0 512 512" style="enable-background:new 0 0 512 512;" xml:space="preserve">
<g>
	<path style="fill:#52B4DE;" d="M472.67,189.387h-37.705V65.027c0-10.412,8.441-18.852,18.853-18.852l0,0
		c10.412,0,18.853,8.44,18.853,18.852v124.36H472.67z"/>
	<path style="fill:#52B4DE;" d="M454.289,309.418c0-104.075-85.458-172.5-198.289-172.5s-198.289,68.425-198.289,172.5
		S92.359,469.459,256,469.459S454.289,413.493,454.289,309.418z"/>
</g>
<path style="opacity:0.1;enable-background:new    ;" d="M202.905,425.407V265.429L65.076,258.81
	c-4.808,15.692-7.365,32.616-7.365,50.608c0,92.819,27.565,147.369,149.606,158.084
	C200.831,454.282,200.668,434.119,202.905,425.407z"/>
<g>
	<path style="fill:#5C626B;" d="M33.97,164.34h54.262v156.071H33.97C15.209,320.412,0,305.203,0,286.442V198.31
		C0,179.549,15.209,164.34,33.97,164.34z"/>
	<path style="fill:#5C626B;" d="M478.03,164.34h-54.262v156.071h54.262c18.761,0,33.97-15.209,33.97-33.969V198.31
		C512,179.549,496.791,164.34,478.03,164.34z"/>
</g>
<path style="fill:#DFE0E0;" d="M467.884,242.376c0-120.567-91.317-199.835-211.884-199.835S44.116,121.809,44.116,242.376
	S81.14,427.778,256,427.778S467.884,362.944,467.884,242.376z"/>
<path style="fill:#52B4DE;" d="M256,42.541c-13.852,0-27.313,1.059-40.298,3.094v204.174h80.597V45.635
	C283.313,43.6,269.852,42.541,256,42.541z"/>
<path style="fill:#5C626B;" d="M396.383,306.069c0,7.405-3.308,14.464-9.119,19.052c-22.945,18.117-73.176,38.932-131.264,38.932
	s-108.319-20.815-131.264-38.932c-5.812-4.589-9.119-11.647-9.119-19.052V203.01c0-7.405,3.308-14.464,9.119-19.052
	c22.945-18.117,73.176-38.932,131.264-38.932s108.319,20.815,131.264,38.932c5.812,4.589,9.119,11.647,9.119,19.052V306.069z"/>
<g>
	<circle style="fill:#DFE0E0;" cx="488.16" cy="196.82" r="7.433"/>
	<circle style="fill:#DFE0E0;" cx="488.16" cy="287.93" r="7.433"/>
	<circle style="fill:#DFE0E0;" cx="490.92" cy="242.38" r="7.433"/>
	<circle style="fill:#DFE0E0;" cx="23.838" cy="196.82" r="7.433"/>
	<circle style="fill:#DFE0E0;" cx="23.838" cy="287.93" r="7.433"/>
	<circle style="fill:#DFE0E0;" cx="21.08" cy="242.38" r="7.433"/>
</g>
<g>
	<path style="fill:#FFFFFF;" d="M181.785,263.469c-4.143,0-7.5-3.358-7.5-7.5V243.65c0-4.143,3.357-7.5,7.5-7.5s7.5,3.357,7.5,7.5
		v12.319C189.285,260.111,185.928,263.469,181.785,263.469z"/>
	<path style="fill:#FFFFFF;" d="M330.215,263.469c-4.143,0-7.5-3.358-7.5-7.5V243.65c0-4.143,3.357-7.5,7.5-7.5s7.5,3.357,7.5,7.5
		v12.319C337.715,260.111,334.357,263.469,330.215,263.469z"/>
	<path style="fill:#FFFFFF;" d="M256,272.929c-9.667,0-18.859-4.187-25.221-11.487c-2.722-3.122-2.395-7.86,0.728-10.581
		c3.122-2.721,7.858-2.396,10.581,0.727c3.512,4.03,8.583,6.342,13.912,6.342s10.4-2.312,13.912-6.342
		c2.72-3.123,7.458-3.448,10.581-0.727c3.123,2.721,3.449,7.459,0.728,10.581C274.859,268.742,265.667,272.929,256,272.929z"/>
</g>
<path style="opacity:0.1;enable-background:new    ;" d="M193.768,50.123c-88.4,22.487-149.652,93.514-149.652,192.253
	c0,107.231,29.293,170.374,158.789,183.031C123.108,327.304,147.64,126.08,193.768,50.123z"/>
</svg>
