<?xml version="1.0" standalone="no"?><!DOCTYPE svg PUBLIC "-//W3C//DTD SVG 1.1//EN" "http://www.w3.org/Graphics/SVG/1.1/DTD/svg11.dtd"><svg t="1580624875214" class="icon" viewBox="0 0 1024 1024" version="1.1" xmlns="http://www.w3.org/2000/svg" p-id="5418" xmlns:xlink="http://www.w3.org/1999/xlink" width="200" height="200"><defs><style type="text/css"></style></defs><path d="M1024 512c0 282.624-229.376 512-512 512S0 794.624 0 512 229.376 0 512 0 1024 229.376 1024 512" fill="#8AC072" p-id="5419"></path><path d="M701.44 524.8c7.168 13.312 8.192 28.672 3.584 43.008-4.608 14.336-14.336 26.112-27.648 32.768l-133.632 69.632-51.712-99.84 133.632-69.632c27.136-14.336 61.44-3.584 75.776 24.064m-118.784-192.512c14.336 4.608 26.112 14.336 32.768 27.648 14.336 27.648 3.584 61.44-24.064 75.776l-133.632 69.632-51.2-99.84 133.632-69.632c12.8-7.168 28.16-8.192 42.496-3.584m22.016-70.144c-33.28-10.24-68.096-7.168-98.816 8.704l-17.408 9.216-43.008-82.944-63.488 32.768 43.008 82.944-54.272 28.16-43.008-82.944-15.36 7.68-61.44 32.256 41.472 79.872-75.264 38.912 36.864 71.168 75.264-38.912 134.656 258.56-74.752 39.424 36.864 71.168 75.264-38.912 35.328 67.584 15.36-7.68 61.44-32.256-36.864-70.656 54.272-28.16 36.864 70.656 62.976-32.768-36.864-70.656 17.92-9.216c11.264-6.144 21.504-13.312 30.72-22.016 15.36-14.848 26.624-33.28 33.28-54.272 10.24-32.768 7.168-68.096-8.704-98.816-16.896-32.256-45.568-54.272-77.824-64 10.752-32.256 8.704-68.608-7.68-100.864-16.896-30.72-43.52-53.76-76.8-64" fill="#FFFFFF" p-id="5420"></path></svg>