<?xml version="1.0" standalone="no"?><!DOCTYPE svg PUBLIC "-//W3C//DTD SVG 1.1//EN" "http://www.w3.org/Graphics/SVG/1.1/DTD/svg11.dtd"><svg t="1580624693562" class="icon" viewBox="0 0 1024 1024" version="1.1" xmlns="http://www.w3.org/2000/svg" p-id="2167" xmlns:xlink="http://www.w3.org/1999/xlink" width="200" height="200"><defs><style type="text/css"></style></defs><path d="M473.88672 486.81984c1.202176 0 5.300224 0.729088 12.3392 1.460224 7.041024 1.460224 12.580864 1.460224 16.64 0 4.038656-0.729088 10.000384-1.460224 17.881088 0 7.860224 0 14.415872 0 19.679232-2.189312 5.240832-2.189312 11.378688-3.649536 18.417664-3.649536 7.022592-1.460224 12.8-2.9184 17.338368-7.297024 4.542464-3.649536 8.937472-7.297024 13.24032-9.488384 4.278272-2.189312 7.499776-7.297024 9.660416-13.867008 2.144256-6.567936 3.219456-13.13792 3.219456-18.245632v-3.649536c0-7.297024-1.499136-14.598144-4.481024-20.436992-2.97984-6.567936-6.623232-11.677696-10.903552-15.327232-4.296704-3.647488-10.022912-7.297024-17.18272-10.217472-7.155712-2.187264-13.694976-5.107712-19.673088-5.838848-5.961728-0.729088-13.28128-2.189312-21.983232-2.920448-8.720384-0.729088-15.620096-0.729088-20.760576-0.729088h-19.32288c-7.739392 0-12.437504 1.460224-14.118912 1.460224h0.006144v110.94016h0.004096zM627.675136 601.407488c0-8.7552-1.775616-16.787456-5.357568-22.624256-3.577856-7.299072-7.979008-13.139968-13.24032-17.52064-5.238784-3.647488-12.097536-7.297024-20.555776-10.215424-8.462336-2.920448-16.279552-5.840896-23.422976-7.299072-7.15776-1.460224-15.98464-2.187264-26.48064-2.920448-10.479616-0.72704-18.722816-1.460224-24.682496-1.460224-5.955584 0-13.658112 0.731136-23.056384 0.731136-9.4208 0.72704-15.101952 0.72704-16.9984 0.72704v121.15968c1.896448 0 6.316032 0.72704 13.236224 1.460224 6.920192 1.460224 12.642304 2.187264 17.160192 2.187264 4.540416 0 10.856448 0 18.962432-0.72704 8.12032 0 15.079424-0.731136 20.918272-1.460224 5.8368 0 12.638208-1.460224 20.404224-2.920448 7.7312-1.460224 14.352384-2.920448 19.838976-4.380672 5.502976-2.920448 11.159552-5.107712 17.000448-8.02816 5.844992-3.647488 10.539008-6.567936 14.123008-10.948608 3.579904-4.380672 6.496256-8.759296 8.759296-14.596096 2.275328-5.111808 3.397632-11.679744 3.397632-17.52064h-0.004096v-3.647488h-0.002048z" fill="#FFA517" p-id="2168"></path><path d="M512 0C229.218304 0 0 229.177344 0 511.635456 0 794.824704 229.218304 1024 512 1024c282.759168 0 512-229.175296 512-512.364544C1024 229.177344 794.759168 0 512 0z m224.423936 612.356096c-1.660928 16.787456-5.537792 32.116736-11.618304 44.52352-6.080512 13.135872-13.780992 24.08448-23.083008 32.11264-9.29792 8.02816-20.860928 15.327232-34.678784 21.168128-13.840384 5.8368-28.32384 10.215424-43.464704 12.408832-15.138816 2.187264-32.50176 4.376576-52.062208 5.107712v91.963392h-55.08096v-90.503168h-43.640832v90.503168h-55.08096v-91.963392c-4.28032 0-10.719232 0.72704-19.318784 2.187264-8.58112 0.731136-15.142912 1.460224-19.662848 1.460224h-71.540736l11.081728-65.687552h39.72096c11.917312 0 18.839552-6.567936 20.740096-18.243584v-144.515072h5.718016-5.718016v-103.63904c-3.10272-16.058368-13.723648-24.815616-31.840256-24.815616h-39.70048v-58.38848h110.52032v-90.503168h55.08096V314.5728c19.562496-1.460224 34.101248-1.460224 43.640832-1.460224v-87.584768h55.083008v90.503168c18.835456 1.460224 35.536896 4.378624 50.079744 8.02816 14.559232 3.649536 28.014592 9.488384 40.41728 16.05632 12.40064 6.569984 22.237184 16.787456 29.519872 28.465152 7.256064 11.677696 11.620352 24.815616 13.062144 40.871936v-4.380672c4.272128 43.792384-11.34592 74.448896-46.862336 93.423616 27.897856 6.567936 48.760832 18.978816 62.580736 36.493312 13.84448 18.24768 19.204096 43.794432 16.10752 77.367296z" fill="#FFA517" p-id="2169"></path></svg>