<?xml version="1.0" standalone="no"?><!DOCTYPE svg PUBLIC "-//W3C//DTD SVG 1.1//EN" "http://www.w3.org/Graphics/SVG/1.1/DTD/svg11.dtd"><svg t="1580045819054" class="icon" viewBox="0 0 2560 1024" version="1.1" xmlns="http://www.w3.org/2000/svg" p-id="1143" xmlns:xlink="http://www.w3.org/1999/xlink" width="500" height="200"><defs><style type="text/css"></style></defs><path d="M2457.6 0a102.4 102.4 0 0 1 102.4 102.4v819.2a102.4 102.4 0 0 1-102.4 102.4H102.4a102.4 102.4 0 0 1-102.4-102.4V102.4a102.4 102.4 0 0 1 102.4-102.4h2355.2z m0 25.6H102.4a76.8 76.8 0 0 0-76.672 72.2944L25.6 102.4v819.2a76.8 76.8 0 0 0 72.2944 76.672L102.4 998.4h2355.2a76.8 76.8 0 0 0 76.672-72.2944L2534.4 921.6V102.4a76.8 76.8 0 0 0-72.2944-76.672L2457.6 25.6z" p-id="1144" fill="#1296db"></path><path d="M1029.1712 673.6896c27.9552 0 42.2912-13.9776 42.2912-41.9328v-85.2992h126.5152v-36.5568h-126.5152v-35.1232h75.264v-25.088c16.128 8.96 33.3312 17.2032 51.6096 25.088l19.712-34.4064c-58.7776-23.296-110.3872-54.8352-155.1872-94.6176h-26.5216c-41.5744 37.632-93.5424 69.1712-156.2624 94.6176l19.3536 34.7648a731.5968 731.5968 0 0 0 53.0432-25.8048v25.4464h82.0736v35.1232h-132.608v36.5568h132.608v75.9808c0 11.8272-6.0928 17.92-18.2784 17.92s-25.4464-0.7168-39.0656-2.1504l8.2432 35.4816h43.7248z m99.6352-234.3936h-158.7712c30.464-18.2784 56.9856-38.3488 79.5648-60.2112 23.296 22.2208 49.8176 42.2912 79.2064 60.2112z m48.7424 221.1328l31.5392-21.8624c-17.92-22.9376-43.7248-50.176-76.6976-81.3568l-29.0304 18.2784c31.5392 31.5392 56.2688 59.8528 74.1888 84.9408z m-255.1808 0.7168c31.5392-19.712 57.344-48.0256 76.6976-84.5824l-32.6144-13.2608c-15.7696 30.464-39.7824 54.8352-72.3968 73.472l28.3136 24.3712z m382.0544 13.9776V657.92h52.3264v17.2032h32.9728v-112.896c1.4336 0.7168 2.8672 2.1504 5.0176 3.9424l22.9376-22.9376c-16.8448-12.1856-35.84-24.3712-56.6272-36.5568 10.752-12.9024 20.0704-27.9552 28.672-44.4416v-20.0704h17.5616v-64.8704h-59.4944a714.7264 714.7264 0 0 0-12.1856-34.4064l-37.9904 6.4512c5.0176 8.6016 9.6768 17.92 13.6192 27.9552h-62.3616v65.2288h31.8976v-34.048h94.2592v29.3888h-49.1008c2.1504-5.376 4.3008-11.1104 6.4512-17.2032l-32.9728-4.6592c-10.0352 29.3888-28.672 54.4768-56.6272 74.5472l19.712 26.1632c8.2432-6.4512 16.128-12.9024 23.296-20.0704 8.6016 4.6592 17.5616 9.3184 26.1632 14.336-20.0704 15.7696-44.0832 26.5216-71.3216 32.9728l13.9776 27.9552c5.376-1.4336 11.1104-3.2256 16.8448-5.0176v108.2368h32.9728z m148.736-78.848v-143.0016h78.1312v142.6432h32.9728v-173.4656h-58.0608c2.1504-10.0352 3.9424-20.7872 5.376-31.5392h62.72v-33.6896h-160.2048v33.6896h62.3616c-1.0752 10.752-2.5088 21.1456-4.6592 31.5392h-51.6096v173.824h32.9728z m-119.7056-105.3696c-9.3184-5.0176-18.9952-10.3936-29.3888-15.4112l6.8096-9.6768h41.9328c-5.7344 8.96-12.1856 17.2032-19.3536 25.088z m87.808 187.4432c29.3888-11.4688 50.8928-28.3136 64.1536-50.176 13.6192-23.6544 20.7872-54.8352 22.2208-93.9008v-63.0784h-32.6144v63.0784c-1.0752 29.3888-6.4512 53.4016-16.128 72.0384-9.6768 16.8448-28.3136 31.1808-56.2688 42.6496l18.6368 29.3888z m-34.4064-118.272h-97.8432a197.7088 197.7088 0 0 0 50.8928-32.256c17.5616 10.752 33.3312 21.504 46.9504 32.256z m-30.1056 66.6624h-52.3264v-35.84h52.3264v35.84z m195.6864 50.176l24.3712-24.0128c-15.7696-18.2784-35.1232-36.5568-57.344-55.1936l-22.5792 21.8624c24.3712 20.4288 42.6496 39.424 55.552 57.344z m72.7552 2.8672c55.552-15.0528 103.2192-34.4064 142.6432-58.4192 16.128 9.6768 33.6896 18.6368 53.0432 26.88 27.9552 11.8272 57.344 21.8624 88.5248 30.1056l21.8624-33.3312a673.792 673.792 0 0 1-81.3568-23.6544c-17.92-6.8096-34.7648-14.336-50.176-22.2208 35.1232-27.5968 62.0032-60.2112 80.64-97.4848v-32.9728h-94.6176V424.96h135.8336v-36.5568h-135.8336v-42.6496h-38.7072v42.6496h-135.8336V424.96h135.8336v43.7248h-108.2368v34.7648h24.0128c5.376 17.2032 13.9776 33.6896 26.1632 49.4592 12.9024 16.8448 28.672 32.256 46.592 46.592-36.5568 20.0704-80.2816 35.4816-131.8912 46.9504l21.504 33.3312z m141.9264-99.9936a231.6032 231.6032 0 0 1-40.1408-34.048 131.7632 131.7632 0 0 1-27.2384-42.2912H1838.08c-16.8448 29.0304-40.4992 54.4768-70.9632 76.3392z m273.1008 98.2016v-248.3712c12.544-22.5792 22.9376-46.2336 30.8224-70.6048l-35.1232-16.4864c-17.2032 55.552-44.0832 103.936-80.2816 144.7936l12.1856 38.7072c12.544-12.9024 24.3712-26.5216 35.1232-40.1408v192.1024h37.2736z m160.2048-2.1504c26.1632 0 39.424-13.6192 39.424-40.4992v-179.5584h48.7424v-36.5568h-48.7424v-72.0384h-37.632v72.0384h-128.3072v36.5568h128.3072v170.24c0 10.3936-5.0176 15.7696-14.6944 15.7696-15.7696 0-32.256-1.0752-49.4592-2.5088l8.6016 36.5568h53.76z m-59.8528-85.6576l31.8976-22.2208c-14.336-22.9376-34.4064-50.176-60.2112-80.9984l-30.8224 18.9952c24.7296 30.8224 44.4416 59.136 59.136 84.224z" p-id="1145" fill="#1296db"></path><path d="M690.432 678.784h-54.528c-15.9744-28.6976-24.6784-57.9584-33.408-94.2848h54.8608c6.784 28.288 13.3632 52.1728 23.4752 76.4416h86.4768V290.816c0-19.2256-15.5648-34.816-34.816-34.816H294.0928a34.816 34.816 0 0 0-34.816 34.816v370.1248h99.6864c9.8304-24.0384 17.024-48.2816 23.808-76.4416h54.8352c-8.704 36.3264-17.408 65.5872-33.0496 94.2848h-145.28v50.4576c0 19.2256 15.616 34.816 34.816 34.816h438.4512a34.816 34.816 0 0 0 34.816-34.816v-50.4576h-76.928zM491.6736 338.176h56.6784c46.4896 49.7664 74.112 74.112 142.0288 131.5072h-69.7344c-47.232-35.584-62.848-53.4016-100.608-91.1872-38.144 37.7856-53.4272 55.5776-100.6336 91.1872h-69.76c67.9424-57.3952 95.5392-81.7408 142.0288-131.5072z m61.4144 319.6672a23.9616 23.9616 0 0 1-23.9872 23.9872h-73.3696v-20.736h28.3136c7.6288 0 13.824-6.144 13.824-13.7728v-89.728h-148.224v-20.736h148.224v-39.5776h-86.0928v-20.7104h229.5808v20.736h-88.2688v39.5776h137.2928v20.7104h-137.2928v100.2496z" p-id="1146" fill="#1296db"></path></svg>