<?xml version="1.0" standalone="no"?><!DOCTYPE svg PUBLIC "-//W3C//DTD SVG 1.1//EN" "http://www.w3.org/Graphics/SVG/1.1/DTD/svg11.dtd"><svg t="1580624798869" class="icon" viewBox="0 0 1024 1024" version="1.1" xmlns="http://www.w3.org/2000/svg" p-id="3733" xmlns:xlink="http://www.w3.org/1999/xlink" width="200" height="200"><defs><style type="text/css"></style></defs><path d="M512 0c-282.8 0-512 229.2-512 512s229.2 512 512 512 512-229.2 512-512-229.2-512-512-512z m0 969.8c-252.8 0-457.8-205-457.8-457.8S259.2 54.2 512 54.2s457.8 205 457.8 457.8-205 457.8-457.8 457.8z" fill="#0093F1" p-id="3734"></path><path d="M511.7 915.7l-17.8-10.2-228.8-140.1-19.1-8.4-1.2-8.5 3.3-17.6 85.7-364.4 6.3-9.2 12.6-18.5L497.4 127.3 508 111.8l2.4-3.5 2.4 3.4 10.7 15.3 148.7 213.6 12.9 18.5 6 8.6 84.7 365.2 3.4 17.6-1.3 8.5-19.1 8.3-231.7 138.4-15.4 10zM570.6 762.1l-30.4 96.3 160.3-95.8-129.9-0.5zM323 761.1l158.1 96.8-29.6-96.4L323 761.1z m164.1 0.6l23.7 77.1 24.3-76.9-48-0.2z m94.1-33.5l150.8 0.6-97.6-169.1-53.2 168.5z m-104.6-0.4l69.1 0.3 65.7-208.2L512 347.5l-99.6 171.8 64.2 208.5z m-184.7-0.7l149.2 0.6-51.8-168.5L291.9 727.1z m356.4-211.3l70.8 122.8-46.4-200-24.4 77.2zM352 438.1l-46.7 198.1 70.3-121.3L352 438.1z m176.9-129.1l96.4 167 31.2-98.8-128.6-184.4 1 116.2z m-160.5 67.2l30.4 98.8L495 309.1l-1-116.8-125.6 183.9z" fill="#0093F1" p-id="3735"></path></svg>