<?xml version="1.0" standalone="no"?><!DOCTYPE svg PUBLIC "-//W3C//DTD SVG 1.1//EN" "http://www.w3.org/Graphics/SVG/1.1/DTD/svg11.dtd"><svg t="1580624767785" class="icon" viewBox="0 0 1024 1024" version="1.1" xmlns="http://www.w3.org/2000/svg" p-id="2972" xmlns:xlink="http://www.w3.org/1999/xlink" width="200" height="200"><defs><style type="text/css"></style></defs><path d="M512 1024C229.225412 1024 0 794.774588 0 512S229.225412 0 512 0s512 229.225412 512 512-229.225412 512-512 512z m0-60.235294c249.494588 0 451.764706-202.270118 451.764706-451.764706 0-249.494588-202.270118-451.764706-451.764706-451.764706C262.505412 60.235294 60.235294 262.505412 60.235294 512c0 249.494588 202.270118 451.764706 451.764706 451.764706z m0-60.235294C295.755294 903.529412 120.470588 728.244706 120.470588 512S295.755294 120.470588 512 120.470588s391.529412 175.284706 391.529412 391.529412-175.284706 391.529412-391.529412 391.529412z m12.047059-692.705883v217.750589l177.694117 77.884235L524.047059 210.823529z m-186.910118 294.550589l175.254588-76.8V210.944l-175.284705 294.430118z m186.910118 121.374117l181.217882-106.014117-181.217882-79.390118v185.404235zM331.294118 520.673882l181.097411 106.074353v-185.404235L331.294118 520.673882z m192.752941 143.36v149.112471l179.862588-254.433882-179.862588 105.321411z m-11.65553 149.112471v-149.112471L332.498824 558.682353 512.391529 813.176471z" fill="#B188FF" p-id="2973"></path></svg>