<?xml version="1.0" standalone="no"?><!DOCTYPE svg PUBLIC "-//W3C//DTD SVG 1.1//EN" "http://www.w3.org/Graphics/SVG/1.1/DTD/svg11.dtd"><svg t="1579445984733" class="icon" viewBox="0 0 3840 1024" version="1.1" xmlns="http://www.w3.org/2000/svg" p-id="8958" xmlns:xlink="http://www.w3.org/1999/xlink" width="750" height="200"><defs><style type="text/css"></style></defs><path d="M768.80384 116.59776l-27.24864-25.20064-28.26752-20.68992-15.1552-9.63072-14.13632-7.7824-15.16032-7.57248-14.1312-5.32992-32.77824-12.0832-32.78336-7.5776-17.40288-3.2768-16.39424-1.02912-34.82112-1.01888-37.0688 1.01888-33.80224 4.3008-33.80224 7.5776-30.31552 12.0832-31.55968 12.90752-28.2624 17.41312-28.4672 20.68992-25.20576 25.20064-24.9856 24.7808-20.68992 28.26752-18.44224 28.27264-14.1312 30.52032-12.07808 30.32064-7.58272 33.80224-4.5056 33.80224v46.90432l30.5152 27.24864 32.57856 26.01984 32.56832 22.94272 33.79712 20.6848 27.24864 14.13632 28.27264 11.88352 28.26752 9.82528 30.52544 8.60672 28.26752 5.5296 30.53056 4.31104 30.52032 1.01888 30.5152 1.23904 30.31552-3.29216 30.52032-4.50048 30.31552-7.58784 32.77824-7.57248 31.55456-12.08832 32.5632-11.8784 32.57856-15.16032 33.59232-16.38912 40.35072-26.2144 42.5984-28.28288-1.024-2.04288v-22.94272l1.024-6.5536-2.24256-35.84-4.30592-33.80224L855.04 258.75968l-10.84928-30.32064-15.16032-30.52032-17.61792-28.27264-20.6848-28.26752-21.92384-24.7808zM399.45728 318.98624l-7.5776-15.36512-5.3248-15.16032-3.4816-17.40288V234.1888l3.4816-16.39424 5.3248-16.384 7.5776-12.91264 8.8064-13.10208 9.8304-7.58272 10.85952-5.5296 12.08832-1.024 10.85952 1.024 11.06432 5.5296 8.59648 7.58272 4.30592 5.5296 5.5296 7.57248 7.58272 12.91264 5.52448 16.384 3.28192 16.39424 1.02912 19.45088-1.02912 17.41824-3.28192 17.40288-5.5296 15.1552-7.58272 15.36512-3.2768 2.24768-2.2528 3.28192-4.30592 5.32992-8.59648 8.81152-11.06432 5.52448-10.85952 2.25792-12.08832-2.25792-10.85952-5.52448-9.8304-8.81152-8.80128-10.8544z m50.19136 161.21856l-5.53984-1.23904-14.12608-5.52448-12.08832-4.31104-11.06432-5.3248-8.59648-4.3008-9.83552-7.57248-6.55872-6.54848-6.54848-7.78752-4.30592-6.55872-17.408 21.91872-14.13632-6.5536-9.63584-5.3248-16.37888-7.58272-9.83552-5.53472-3.28192-3.2768v-3.27168l3.28192-2.2528 5.5296-3.28704 7.57248-3.26656 8.8064-5.54496 11.88864-4.29056 14.12608-6.55872 16.39424-5.5296 33.80224-13.11744 38.10304-7.57248 19.6608-3.2768 21.9136-1.23392 44.66176 1.23392 43.42272 3.2768 19.46112 2.24768 20.6848 4.3008 17.41824 3.28192 18.8416 5.5296 32.77824 11.8784 6.54848 2.2528h1.03424l2.048 1.22368 4.30592 2.05824 5.52448 2.24256 6.5536 3.28704 9.82528 4.5056 9.63584 4.3008 5.5296 2.24768 5.5296 2.2528h1.02912l2.24768 1.024 2.048 2.2528h-1.22368l-2.048 1.024-4.30592 2.24768-5.52448 3.28192-7.58784 3.28192-8.59648 4.3008-9.84064 5.53472-10.85952 6.3488-16.37888-19.46112-10.85952 13.11744-6.55872 5.3248-6.5536 6.54848-8.8064 4.30592-8.81152 5.32992-9.63072 4.30592-5.5296 2.24256-4.30592 3.28704-10.84928 2.04288-17.40288 1.23392-16.39936 2.24256-17.40288 1.02912-17.41312 2.2528h-43.43296l-40.54528-4.49536z m158.95552-318.95552l10.85952 1.024 11.06944 5.5296 9.61536 7.58272 4.30592 5.5296 5.73952 7.57248 6.5536 12.91264 5.53984 16.384 3.26656 16.39424 1.23904 19.45088-1.23904 17.41824-3.26656 17.40288-5.53984 15.16032-6.5536 15.36512-3.28192 2.24768-2.4576 3.28192-4.30592 5.32992-5.31968 4.30592-4.3008 4.29568-11.06944 5.53472-10.85952 2.24768-12.08832-2.24768-10.85952-5.53472-9.8304-8.81664-7.57248-10.8544-7.58784-15.36-5.52448-15.16032-3.28192-17.41824-1.024-17.408 1.024-19.46112 3.28192-16.384 5.52448-16.39424 7.58784-12.9024 7.57248-13.11232 9.8304-7.5776 10.85952-5.53472 12.09344-0.80384z m0 0" fill="#1F2124" p-id="8959"></path><path d="M383.27296 253.63456v17.41824l3.4816 17.40288 5.3248 15.16032 7.58272 15.36512 8.81152 10.85952 9.8304 8.81152 10.84928 5.52448 12.09344 2.25792 10.8544-2.25792 11.05408-5.52448 8.61184-8.81152 4.3008-5.32992 2.24256-3.28192 3.28192-2.24768 7.5776-15.36512 5.53984-15.16032 3.27168-17.40288 1.01888-17.41824-1.01888-19.45088-3.27168-16.39424-5.53984-16.384-7.5776-12.91264-5.52448-7.57248-4.3008-5.5296-8.61184-7.58272-11.05408-5.5296-10.8544-1.024-12.09344 1.024-10.84928 5.5296-9.8304 7.58272-8.81152 13.10208-7.58272 12.91264-5.3248 16.384-3.4816 16.39424v19.45088z m59.81184 1.024l1.23392-15.16032 5.5296-11.8784 6.5536-8.8064 10.04032-2.05312h3.28192l4.29568 2.05312 8.60672 8.8064 4.30592 11.8784 1.024 6.56384 1.024 8.8064-1.024 6.54848h-1.024v7.58784l-2.25792 5.31456-2.048 6.56384-4.30592 4.30592-4.3008 3.27168-4.29568 2.048h-3.47648v1.2288l-5.54496-1.2288-4.5056-2.048-4.3008-3.27168-2.048-4.30592-5.5296-12.08832-1.23392-14.13632z m0 0" fill="#FFFFFF" p-id="8960"></path><path d="M449.64864 227.61984l-5.53984 11.8784-1.024 15.16032 1.024 14.35136 5.53984 11.87328 2.048 4.30592 4.50048 3.27168 4.5056 2.048 5.54496 1.2288v-1.2288h3.06688l4.50048-2.048 4.30592-3.27168 4.30592-4.30592 2.24768-6.56384 2.25792-5.31456v-7.58784h1.024l1.024-6.7584-1.024-8.59648-1.024-6.56384-4.5056-11.8784-8.61184-8.8064-4.50048-2.05312h-3.06688l-10.04544 2.05312-6.5536 8.8064z m0 0" fill="#1F2124" p-id="8961"></path><path d="M444.1088 478.96576l5.53984 1.23904 40.5504 4.29568h43.43296l17.41312-2.24768 17.40288-1.024 16.39936-2.26304 17.40288-1.01888 10.65472-2.04288 4.5056-3.28704 5.5296-2.24256 9.63072-4.52096 8.81152-5.32992 8.8064-4.29056 6.5536-6.56384 6.55872-5.32992 10.85952-13.10208 16.37888 19.45088 10.85952-6.3488 9.84064-5.5296 8.59648-4.51072 7.58784-3.06176 5.52448-3.28704 4.30592-2.2528 2.048-1.024h1.22368l-2.24768-2.24768-2.25792-1.024h-0.82432l-5.5296-2.2528-5.5296-2.048-9.63584-4.3008-10.03008-4.5056-6.3488-3.07712-5.52448-2.4576-4.30592-2.05824-2.25792-1.02912h-1.024l-6.54848-2.24256-32.57856-11.88864-18.8416-5.5296-17.20832-3.28192-20.70016-4.29056-19.6608-2.25792-43.42272-3.28192-44.66176-1.024-21.9136 1.024-19.6608 3.28192-38.10304 7.58272-33.80224 13.10208-16.18432 5.53984-14.13632 6.3488-11.88352 4.5056-8.8064 5.53472-7.58272 3.06176-5.5296 3.28704-3.28704 2.2528v3.27168l3.28704 3.2768 9.8304 5.53472 16.39424 7.58272 9.62048 5.3248 14.336 6.5536 17.21856-21.7088 4.5056 6.3488 6.5536 7.78752 6.35392 6.54848 10.0352 7.57248 8.6016 4.3008 10.8544 5.5296 12.08832 4.10624 13.93152 5.53984z m0 0" fill="#E48B12" p-id="8962"></path><path d="M650.19392 188.48768l-5.73952-7.57248-4.30592-5.5296-9.61536-7.58272-11.06944-5.5296-10.85952-1.024-12.08832 1.024-10.85952 5.5296-9.8304 7.58272-7.57248 13.10208-7.58784 12.91264-5.52448 16.384-3.28192 16.39424-1.024 19.45088 1.024 17.41824 3.28192 17.40288 5.52448 15.16032 7.58784 15.36512 7.57248 10.85952 9.8304 8.81152 10.85952 5.52448 12.08832 2.25792 10.85952-2.25792 11.06944-5.52448 4.3008-4.30592 5.31968-4.3008 4.30592-5.3248 2.4576-3.2768 3.28192-2.2528 6.5536-15.36 5.53984-15.1552 3.26656-17.41824 1.23904-17.40288-1.23904-19.46112-3.26656-16.39424-5.53984-16.384-6.55872-13.12256z m-50.18624 39.13216l4.29568 11.8784 1.23392 6.56384 2.048 8.8064-2.048 6.54848h-1.23392v7.58784l-2.04288 5.31456-2.24768 6.56384-4.3008 4.30592-2.048 1.024-1.23392 2.24768-4.3008 2.048h-3.072v1.2288l-5.52448-1.2288-4.10624-2.048-4.29056-3.27168-2.26304-4.30592-4.3008-6.56384-2.048-5.31456-1.22368-7.58784 1.22368-6.54848-1.22368-8.8064 1.22368-6.56384 6.54848-11.8784 6.56896-8.8064 9.61536-2.05312h3.28192l4.30592 2.05312 3.2768 3.2768 3.88608 5.5296z m0 0" fill="#FFFFFF" p-id="8963"></path><path d="M607.58528 254.65856l-2.048-8.59648-1.23392-6.56384-4.29568-11.8784-4.51072-5.5296-3.27168-3.2768-4.30592-2.05312h-3.06688l-9.83552 2.05312-6.56384 8.8064-6.54848 11.8784-1.23392 6.56384 1.23392 8.59648-1.23392 6.7584 1.23392 7.58784 2.048 5.31456 4.50048 6.56384 2.25792 4.30592 4.30592 3.27168 4.29568 2.048 5.53984 1.2288v-1.2288h3.06688l4.30592-2.048 1.22368-2.24768 2.048-1.024 4.51072-4.30592 2.24768-6.56384 2.04288-5.31456v-7.58784h1.23392l2.05312-6.7584z m0 0" fill="#1F2124" p-id="8964"></path><path d="M169.82528 373.67808l-14.13632 20.48512-13.11232 34.82624-3.28192 10.8544 1.23392 13.11232 5.32992 24.99584 1.024 1.01888 35.84512 31.75424 31.54432 23.97184 5.53984 4.3008 47.92832 32.768 18.85184 10.86976 44.45696 22.93248 44.65152 17.21856 31.54432 9.8304 23.76704 5.31968 23.96672 4.51072 24.1664 2.24768 26.21952 1.02912 48.95744-2.24768 23.96672-3.072 26.01984-4.52096 23.96672-6.3488 23.97184-7.78752 23.97184-9.8304 26.22464-10.63936 49.98144-26.22976 23.96672-15.34976 26.21952-16.18944 10.84928-7.58784 21.92384-17.60768 18.44224-17.408 18.432-17.41824 1.23392-2.24256 2.24768-4.30592 5.3248-16.39424 3.28192-14.12608 2.24768-12.90752 1.02912-11.0592-1.02912-10.85952-3.27168-7.58272-5.53984-6.54848-5.52448-4.30592-1.02912 1.02912-42.60864 28.26752-40.3456 26.21952-33.60256 16.39424-32.5632 15.1552-32.77824 11.88352-31.55456 12.28288-32.76288 7.57248-30.32064 7.59808-30.72512 4.3008-30.31552 3.27168-30.52032-1.2288-30.53568-0.8192-30.5152-4.50048-28.2624-5.5296-30.53056-8.60672-28.2624-9.83552-28.48256-12.08832-27.03872-14.12096-33.80224-20.70016-32.77824-22.94272-32.5632-26.01472-30.53568-27.06432z m0 0" fill="#D62318" p-id="8965"></path><path d="M149.12512 407.27552l-2.24768 6.35392v17.61792l2.24768 1.01888v-24.99072z m0 0" fill="#B42924" p-id="8966"></path><path d="M146.88256 431.24736v-17.61792l-2.048 6.7584v9.62048l2.048 1.23904z m0 0" fill="#B72824" p-id="8967"></path><path d="M144.83456 430.00832v-9.62048l-2.2528 8.6016 2.2528 1.01888z m0 0" fill="#BB2923" p-id="8968"></path><path d="M219.80672 538.98752l-1.024 2.24768-19.67104 30.52032-12.90752 33.80224-8.60672 33.60256-2.45248 38.10816 1.23392 26.20928 1.22368 13.11232 3.08224 14.14144 7.57248 24.99072 4.5056 12.08832 6.35392 13.11232 5.53984 10.85952 7.57248 11.8784 7.58272 10.84928 9.8304 11.8784 8.81152 9.84064 10.8544 10.84928 23.97184 21.91872 18.64192 14.14144 20.6848 13.312 20.68992 11.8784 22.74304 10.86976 22.7328 8.6016 23.96672 7.7824 24.1664 5.32992 26.01984 5.31968 57.97888 4.51072 34.61632-2.048 16.39424-2.4576 17.408-0.8192 21.71904-5.5296 22.7328-6.55872 22.1184-7.5776 22.74304-8.6016 19.66592-10.85952 20.6848-11.25888 19.46624-13.12256 19.6608-12.9024 20.69504-19.6608 19.46112-19.47136 15.36-21.89824 6.5536-10.86976v-2.24768l1.23392-0.82944 2.04288-2.24256 4.30592-4.51072 9.63072-23.97184 4.70528-11.8784 4.3008-10.85952 2.25792-13.11232 1.024-6.35904 2.24256-5.50912 4.30592-24.17152v-14.14144l-1.024-17.41824-2.25792-17.408-3.26656-17.408-4.30592-15.36-6.76352-17.20832-4.3008-8.81152-2.24256-4.31104-1.024-2.03776v-1.23904l-8.81152-17.39776-9.6256-15.16032-26.21952 16.18944-23.96672 15.34976-49.98144 26.22976-26.22464 10.63936-23.97184 9.8304-23.97184 7.78752-23.96672 6.3488-26.01984 4.52096-23.96672 3.072-48.95744 2.24768-26.21952-1.02912-24.1664-2.24768-23.96672-4.51072-23.76704-5.31968V721.92l2.25792 8.81152-2.25792 5.5296-4.5056 9.63072-19.46112 7.7824-18.432 6.54848-17.6128 2.05824-17.20832 1.01888-17.41312-4.3008-16.37888-5.32992-16.39424-9.8304-15.36-10.84928-5.53472-18.65216-0.81408-20.68992 9.62048-121.89184-47.94368-32.768z m0 0" fill="#FFFFFF" p-id="8969"></path><path d="M407.23968 632.61184l-31.54432-9.8304-44.65152-17.21856-44.45696-22.93248-18.85184-10.86976-9.62048 121.89184 0.81408 20.68992 5.53472 18.65216 15.36 10.84928 16.39424 9.8304 16.37888 5.32992 17.41312 4.3008 17.20832-1.01888 17.6128-2.05824 18.432-6.54848 19.46112-7.7824 4.5056-9.63072 2.25792-5.5296-2.24768-8.81664v-89.30816z m0 0" fill="#D62318" p-id="8970"></path><path d="M788.26496 869.00224l-20.68992 17.19808-10.86464 6.7584h-2.04288l-1.024 0.82944-2.2528 2.6624-4.3008 4.31104-20.69504 13.11232-21.90848 10.84928-22.74304 10.85952-13.10208 3.072-11.88864 4.50048-13.31712 3.08224-11.8784 4.51072-26.01984 5.5296-26.22464 5.31968v7.78752l3.2768 8.61184 3.28704 6.54848 7.57248 7.57248 6.55872 5.53984 7.5776 4.3008 7.57248 2.048 9.84576 1.2288h208.11264l13.11744-1.2288 12.08832-4.3008 10.6496-5.5296 8.8064-7.5776 8.81152-8.6016-8.81152-7.78752-6.5536-3.28192-15.36-0.8192 10.03008-4.51072 9.83552-4.3008 7.58272-6.54848 8.59648-6.54848-7.57248-5.53984-6.56384-3.072-13.1072-2.25792 1.22368-2.24768 2.048-1.01888 4.30592-2.24768 7.58272-4.31104 5.5296-6.3488 6.5536-6.74816v-2.05824l-9.8304-5.5296-8.59648-3.28192-19.66592 1.23904 7.57248-4.31104 3.2768-2.6624 4.29568-0.82944 2.2528-3.27168 3.28192-2.24256 4.5056-4.31104v-1.23904l-8.81152-6.53824-7.57248-3.08224-8.81152-3.28192h-65.54112z m-647.73632 39.32672v2.05824l4.30592 6.74816 6.5536 6.3488 16.18432 9.8304H160l-6.3488 2.25792-13.11744 8.61184 6.35392 6.54848 8.8064 6.54848 9.83552 4.3008 12.07808 4.51072-16.384 0.8192-8.81152 3.28192-6.5536 7.78752 6.5536 8.6016 9.8304 7.5776 10.8544 5.5296 13.11232 4.3008 14.13632 1.2288h207.91808v-1.2288h7.58272l8.81152-2.048 6.3488-4.3008 8.81152-5.53984 4.29056-7.57248 4.51584-6.54848 2.24768-7.78752 2.048-6.3488-28.2624-4.51072-27.24864-5.31968-27.24864-7.78752-24.9856-7.5776-51.01056-21.50912-24.1664-13.11232-22.94272-14.34112-30.31552-20.68992h-40.35072l-7.58784 3.28192-14.336 9.62048-0.80896 1.23904 3.06688 4.31104 5.5296 5.50912 6.54848 3.49184 9.63072 4.31104-20.48512-1.23904-8.8064 3.28192-8.61184 5.52448z m0 0" fill="#E4860F" p-id="8971"></path><path d="M869.79072 398.0544l-2.048-1.2288 4.9152-9.62048 2.25792 1.01888-5.12512 9.8304zM174.33088 376.54016l-14.13632 20.68992-9.0112-6.144 14.12608-20.6848 9.02144 6.13888z m-23.36256 14.75072l0.41472-0.4096h-0.2048l4.5056 3.08224-4.71552-2.67264z m9.42592 5.5296l-7.57248 13.11232-9.4208-5.5296 7.57248-13.11744 9.4208 5.53472z m-17.61792 9.22112l0.20992-0.6144 0.41472-0.82944 4.70528 2.87232-5.32992-1.42848z m10.65472 2.46272l-3.28192 13.11232-10.64448-2.6624 3.27168-12.90752 10.65472 2.4576z m-3.28192 13.1072l-2.24256 8.60672-10.4448-2.67264 2.04288-8.59648 10.64448 2.6624z m-2.24256 8.8064l0.19968-0.19968-0.19968 0.19968-5.32992-1.22368 5.32992 1.22368z m0 0l-3.28192 10.85952-10.4448-3.06688 3.28192-10.86464 10.4448 3.072z m-13.94176 10.04544l-0.19968-1.23904 0.41472-1.01888 5.11488 1.62816-5.32992 0.62976z m10.86976-1.03424l1.024 13.11744-11.06432 0.8192-1.02912-12.9024 11.06944-1.03424z m-9.83552 14.76096l-0.2048-0.41472v-0.21504l5.5296-0.41472-5.3248 1.04448z m10.8544-2.25792l5.32992 24.9856-10.45504 2.25792-5.5296-24.9856 10.65472-2.25792z m-3.8912 29.90592l-1.23392-1.024-0.19968-1.63328 5.32992-1.23392-3.89632 3.8912z m7.78752-7.58784l1.21856 1.03936-7.57248 7.77728-1.23392-1.2288 7.58784-7.58784z m-6.3488 8.81664l3.4816-4.10112-3.4816 4.10112z m7.16288-7.99232l35.84512 31.75424-7.36768 8.20224-35.85024-31.75936 7.3728-8.19712z m29.09184 39.95648l-0.21504-0.20992 3.4816-4.10112-3.26656 4.31104z m6.5536-8.60672l31.54432 23.95648-6.54848 8.61184-31.54432-23.9616 6.54848-8.60672z m0 0" fill="#1F2124" p-id="8972"></path><path d="M264.66304 576.27136l-47.93344-32.768 6.14912-9.02144 47.93344 32.77824-6.14912 9.0112z m-47.93344-32.57344l-0.2048-0.39936 3.4816-4.31104-3.2768 4.7104z m-0.19968-0.39936l-5.52448-4.31104 6.95808-8.61184 5.32992 4.31104-6.76352 8.61184z m0 0" fill="#1F2124" p-id="8973"></path><path d="M218.98752 531.81952l4.5056 6.3488-9.22112 6.13888-4.50048-6.54848 9.216-5.9392z m186.61888 105.90208l-31.75424-9.63072 3.28192-10.43968 31.54432 9.63072-3.072 10.43968z m-31.55456-9.63072l-0.39936-0.19968 1.83808-5.10976-1.43872 5.30944z m-0.39936 0l-44.66688-17.38752 4.10624-10.26048 44.45184 17.41824-3.8912 10.22976z m-44.672-17.60256l-0.39936-0.20992 2.4576-4.91008-2.05824 5.12z m-0.39424-0.20992l-44.672-22.94784 4.9152-9.8304 44.66688 22.9376-4.91008 9.84064z m-44.672-22.94784l2.67264-4.91008-2.67264 4.91008z m-0.19456-0.19968l-18.84672-10.85952 5.5296-9.21088 18.64192 10.6496-5.3248 9.4208z m583.81824-196.66432l1.024-1.21856 7.57248 7.5776-1.024 1.2288-7.57248-7.58784z m0 0" fill="#1F2124" p-id="8974"></path><path d="M875.72992 388.83328l5.53472 4.3008-6.7584 8.6016-5.53984-4.29568 6.76352-8.60672z m5.53472 4.3008l0.40448 0.41472 0.20992 0.41472-4.10624 3.4816 3.49184-4.31104z m0.6144 0.82944l5.5296 6.54848-8.3968 7.17312-5.5296-6.55872 8.3968-7.16288z m5.5296 6.54848l0.4096 0.6144 0.41472 0.82432-5.12512 2.04288 4.3008-3.4816z m0.82432 1.43872l3.26144 7.57248-10.02496 4.30592-3.28192-7.57248 10.04544-4.30592z m3.26144 7.56736l0.21504 0.82432v0.82432l-5.32992 0.60928 5.11488-2.25792z m0.41984 1.64864l1.23392 10.85952-10.85952 1.01888-1.23392-11.06432 10.85952-0.81408z m1.01888 10.85952v1.01888l-5.31968-0.6144 5.31968-0.40448z m0 1.01888l-1.22368 10.85952-10.85952-1.22368 1.22368-10.86464 10.85952 1.2288z m-1.01888 10.85952v0.20992l-5.32992-0.82432 5.32992 0.6144z m0 0.40448l-2.04288 13.12256-10.85952-1.64864 2.2528-13.1072 10.6496 1.63328z m-2.048 12.9024l-0.2048 0.41472-5.32992-1.2288 5.53472 0.81408z m-0.19968 0.41472l-3.28192 14.13632-10.65472-2.4576 3.48672-14.13632 10.44992 2.4576z m-3.28192 14.13632l-0.2048 0.60928-5.12512-1.63328 5.32992 1.024z m-0.2048 0.4096l-5.3248 16.384L870.4 475.2896l5.53984-16.39424 10.24 3.2768z m-5.3248 16.384l-0.20992 0.4096-0.19968 0.6144-4.9152-2.4576 5.3248 1.4336z m-0.20992 0.8192l-2.24768 4.30592-9.6256-4.9152 2.04288-4.3008 9.8304 4.91008z m-12.07808-0.60928l-3.07712 6.35392 3.07712-6.35392 4.9152 2.65728-4.9152-2.65728z m9.62048 4.92032l-1.024 2.24256-9.8304-4.91008 1.23392-2.24768 9.62048 4.9152z m-0.81408 2.24256l-0.62464 0.82432-0.81408 0.61952-3.6864-3.90144 5.12512 2.4576z m-1.4336 1.43872l-18.43712 17.6128-7.3728-8.19712 18.44224-17.20832 7.36768 7.79264z m-18.44224 17.6128l-18.44224 17.41824-7.3728-8.00256 18.44224-17.6128 7.3728 8.19712z m-18.44224 17.41824l-0.19968 0.4096-3.4816-4.3008 3.68128 3.8912z m-0.19968 0.4096l-21.91872 17.20832-6.76352-8.40192 21.91872-17.41824 6.76352 8.61184z m-22.1184 17.21344l-0.41472 0.19968-2.87232-4.31104 3.28704 4.11136z m-0.20992 0.19968l-10.8544 7.78752-6.13888-8.82176 10.85952-7.57248 6.13376 8.60672z m-10.85952 7.78752l-0.6144 0.4096 0.41472-0.20992-2.66752-4.7104 2.8672 4.51072z m-0.41472 0l-26.0096 16.37888-5.72928-9.4208 26.01472-16.38912 5.72416 9.43104z m-31.73888 7.16288l2.24768-1.41824-2.24768 1.41824 2.8672 4.52096-2.8672-4.52096z m5.72928 9.216l-23.96672 15.16032-5.72928-9.0112 23.96672-15.16032 5.72928 9.0112z m-23.96672 15.16032l-0.2048 0.4096-2.6624-4.92032 2.8672 4.51072z m-0.19968 0.20992l-50.18624 26.0096-5.12512-9.63072 50.19648-26.21952 5.11488 9.84064z m-50.18624 26.0096l-0.62464 0.4096h0.21504l-2.04288-4.91008 2.45248 4.50048z m-0.4096 0.41472l-26.22976 10.85952-4.09088-10.04032 26.2144-11.0592 4.10624 10.24z m-26.22976 10.85952l2.04288-0.82944-2.04288 0.82944-2.04288-4.92032 2.04288 4.92032z m0 0l-23.96672 9.8304-4.096-10.24 23.97184-9.63072 4.09088 10.04032z m-23.75168 9.8304l-0.41472 0.19968-1.6384-5.32992 2.05312 5.13024z m-0.62464 0.19968l-24.17152 7.58784-3.28192-10.44992 24.17664-7.7824 3.2768 10.64448z m-23.95648 7.58784l-1.64864-5.13024 1.64864 5.13024z m-0.21504 0l-23.96672 6.54848-2.65728-10.44992 23.96672-6.54848 2.65728 10.44992z m-23.96672 6.54848l-0.4096 0.20992-1.024-5.32992 1.4336 5.12z m-0.4096 0l-26.21952 4.31104-1.84832-10.65984 26.22976-4.31104 1.83808 10.65984z m-26.21952 4.31104l-1.024 0.19968 1.024-0.19968-0.82432-5.32992 0.82432 5.32992z m-0.20992 0l-23.9616 3.47136-1.4336-11.0592 23.97184-3.27168 1.42336 10.85952z m-23.95648 3.47136l0.39936-0.19968-0.80896 0.19968-0.21504-5.51936 0.62464 5.51936z m-0.4096 0l-48.95744 2.03776-0.41472-10.83904 48.96256-2.25792 0.4096 11.0592z m-48.95744 2.03776h-0.20992l0.20992-5.30944v5.30944z m-0.41472 0l-26.22976-1.20832 0.41472-10.85952 26.01984 1.2288-0.2048 10.83904z m-26.22464-1.00864h-0.39936 0.2048l0.60928-5.32992-0.41472 5.32992z m-0.40448 0l-24.18176-2.048 1.024-10.84928 24.17664 2.03776-1.01888 10.85952z m-23.96672-2.048h-0.41472l1.024-5.5296-0.60928 5.5296z m-0.61952 0l-23.9616-4.50048 1.83808-10.85952 23.97184 4.3008-1.84832 11.0592z m-23.76192-4.50048h0.6144-0.6144l1.024-5.53984-1.024 5.53984z m-0.19968-0.20992l-23.96672-5.32992 2.24768-10.6496 23.97184 5.5296-2.2528 10.44992z m0 0" fill="#1F2124" p-id="8975"></path><path d="M412.5696 632.61184V721.92h-10.8544v-89.30816h10.8544z m-10.65472 90.73664l-0.19968-0.60928v-1.01888h5.3248l-5.12512 1.62816z m10.65472-2.65728l2.25792 8.61184-10.65984 2.85696-2.048-8.81152 10.44992-2.65728z m2.25792 8.60672l0.40448 1.62816-0.61952 1.84832-5.11488-2.25792 5.32992-1.21856z m-0.41472 3.4816l-2.048 5.5296-10.24512-4.09088 2.24256-5.32992 10.05056 3.8912z m-2.04288 5.5296l-5.12512-2.048 5.12512 2.048z m-0.21504 0.20992l-4.3008 9.8304-9.8304-4.51072 4.30592-9.82016 9.82528 4.50048z m-4.3008 9.61024l-0.81408 2.06848-2.04288 0.80896-2.05824-5.12 4.9152 2.24256z m-3.072 2.88256l-19.46624 7.5776-4.09088-10.24 19.66592-7.58784 3.8912 10.25024z m-19.46624 7.77728l1.43872-0.60928-1.43872 0.60928-2.04288-4.92032 2.04288 4.92032z m-0.19968 0l-18.64192 6.55872-3.4816-10.44992 18.432-6.54848 3.69152 10.43968z m-18.6368 6.55872l-0.60928 0.19968-0.41472 0.20992-0.6144-5.53984 1.6384 5.13024z m-1.02912 0.41472l-17.41312 2.048-1.43872-10.86976 17.41824-2.24256 1.4336 11.06432z m-17.41312 2.048h0.4096-0.82432l-0.39936-5.5296 0.81408 5.5296z m-0.4096 0l-17.408 1.02912-0.60416-10.85952 17.40288-1.03936 0.60928 10.86976z m-17.41312 1.02912h-0.8192l-0.80896-0.22016 1.42848-5.31968 0.19968 5.53984z m-1.62816-0.22016l-17.21856-4.3008 2.66752-10.6496 17.408 4.31104-2.85696 10.63936z m-17.41824-4.3008l-0.6144-0.19968 1.8432-5.12-1.2288 5.31968z m-0.41472-0.19968l-16.37888-5.32992 3.4816-10.43968 16.384 5.31968-3.48672 10.44992z m-16.37888-5.32992l-0.6144-0.4096-0.21504-0.19968 2.67264-4.72064-1.8432 5.32992z m-0.82944-0.4096l-16.37888-9.8304 5.72416-9.4208 16.39424 9.8304-5.73952 9.4208z m-16.37888-9.8304l-0.62464-0.41984 3.49184-4.50048-2.8672 4.92032z m-0.62464-0.41984L261.38112 737.28l6.56384-8.81152 15.36 11.06944-6.76352 8.59136zM261.18656 737.28l-1.4336-1.01888-0.41984-2.03776 5.12512-1.43872-3.27168 4.49536z m-1.85344-2.87232l-5.5296-18.432 10.44992-3.06176 5.3248 18.432-10.24512 3.06176z m-5.52448-18.42688l-0.2048-0.39936v-0.82944l5.3248-0.4096-5.12 1.6384z m-0.2048-1.2288l-1.02912-20.8896 10.86976-0.61952 1.01888 20.8896-10.85952 0.61952z m-1.02912-20.8896v-0.8192l5.53984 0.60928-5.53984 0.20992z m0-0.62464l9.84064-121.8816 10.85952 1.01888-9.8304 121.68192-10.86976-0.8192z m198.7072 281.46176l-28.26752-4.50048 3.28192-21.71904 28.27264 4.31104-3.28704 21.90848z m-28.26752-4.50048l0.61952 0.19968-1.23392-0.19968 2.048-10.85952-1.4336 10.85952z m-0.6144 0l-27.24864-5.5296 4.30592-21.51936 27.24864 5.53984-4.30592 21.50912z m-27.03872-5.5296l-0.82432-0.39936 2.87232-10.46016-2.048 10.85952z m-0.82432-0.19968l-27.2384-7.58784 5.72928-20.8896 27.24864 7.5776-5.73952 20.89984z m-27.2384-7.58784l-3.28192-0.80896 2.87232 0.80896 3.26656-10.43968-2.85696 10.43968z m-0.20992 0l-24.99584-7.5776 6.56896-21.09952 24.9856 7.78752-6.55872 20.8896z m-25.19552-7.58272l0.41472 0.19968-1.43872-0.60928 4.29568-10.03008-3.27168 10.43968z m-0.8192-0.60928l-51.20512-21.71904 8.6016-20.0704 51.00032 21.91872-8.3968 19.87072z m-51.42016-21.71904l-1.024-0.60928h0.19968l5.12512-9.4208-4.3008 10.03008z m-0.8192-0.39936l-24.1664-13.11232 10.4448-19.26144 24.18176 13.11232-10.46016 19.26144z m-23.9616-13.11232l-0.61952-0.20992 5.73952-9.22112-5.12 9.43104z m-0.61952-0.20992l-22.73792-14.1312 11.4688-18.64192 22.74304 14.1312-11.47392 18.64192z m-22.94272-14.1312l-0.6144-0.20992h0.21504l6.13888-9.0112-5.73952 9.22112z m-0.40448-0.4096l-30.53056-20.68992 12.29312-18.02752 30.52544 20.68992-12.288 18.02752z m0 0" fill="#1F2124" p-id="8976"></path><path d="M625.00352 1016.0896h-1.23392l-9.63072-1.02912h-0.6144l-1.22368-0.41984-7.58272-2.24256-1.63328-0.4096-0.82432-0.61952-7.5776-4.10112-0.61952-0.60928-7.37792-6.13888-0.80896-0.61952-7.58784-7.78752-1.8432-2.85184-3.4816-6.3488-0.19968-0.82944-0.19968-0.41984-3.28192-8.6016-0.6144-1.62816v-9.62048h21.49888v5.51936l2.46272 6.35904 2.2528 4.70016 5.5296 5.53984 5.73952 4.91008 5.73952 3.27168 5.32992 1.64864 8.8064 0.80896h206.06976l11.67872-0.80896 9.22112-3.28192 9.63072-4.92032 7.3728-6.54848-1.64352-0.8192-13.31712-1.02912-43.8272-3.27168 49.98144-21.92896 8.18688-3.68128 2.4576-2.24768-23.96672-4.10112 7.7824-15.36 1.64352-3.28192 3.07712-1.6384 2.25792-1.02912 3.88608-1.83808 5.94944-3.69152 2.24768-2.87232-3.68128-1.42848-17.00864 1.2288-46.49984 2.6624 40.35072-23.14752 7.58272-4.3008 2.8672-1.82784 1.6384-1.23904 0.8192-0.19968-2.8672-1.2288-6.5536-2.4576h-63.09376v-21.7088h67.59936l1.83296 0.4096 8.61184 3.4816-1.4336-0.61952 1.84832 0.8192 7.57248 3.28192 1.64352 0.60928 0.6144 0.61952 8.59648 6.55872 4.30592 3.26144v11.26912l-3.2768 3.28192-1.02912 0.82944 0.82432 0.19968 0.2048 0.20992 1.2288 0.60928 9.8304 5.73952 5.73952 3.27168v13.11232l-3.28192 3.28192-5.9392 5.72928-4.3008 4.92032 2.2528 1.42848 2.24768 1.43872 2.25792 1.83808 2.04288 1.6384 12.09344 8.61184-12.09344 8.80128-8.18176 6.14912-4.30592 3.8912 7.78752 6.96832 8.59648 7.5776-16.7936 16.78848-0.60928 0.41984-8.81152 7.5776-1.024 1.01888-1.024 0.61952-11.06944 5.31968-0.19968 0.19968-1.03424 0.4096-11.8784 4.31104-1.22368 0.60928h-1.4336l-13.93664 1.02912v-0.41984l0.82432 0.61952h-208.94208v-0.2048z m222.04928-1.2288l-0.4096-4.50048-0.21504-3.29216-0.19968-2.03776v-0.61952 0.61952l0.19968 2.03776 0.21504 3.29216 0.4096 4.50048z m14.75072-4.92032l-1.64352-4.3008-1.024-3.072-0.6144-1.84832-0.2048-0.4096 0.2048 0.60928 0.6144 1.64864 1.024 3.072 1.64352 4.3008z m1.22368-89.72288l3.89632-1.84832-3.89632 1.84832z m-277.36576 79.68256l0.82432 0.61952-0.82432-0.61952z m0 0" fill="#39474C" p-id="8977"></path><path d="M1.024 721.92l-1.024 12.09856 1.024 10.84928 1.024 9.8304 3.4816 9.8304 2.048 6.54848 4.3008 6.56896 11.8784 8.59136 9.84064 2.25792 11.8784-1.2288 12.07808-5.32992 15.16032-8.6016 2.05824-5.5296 2.24768-6.55872 2.03776-7.5776 4.31104-8.80128 3.2768-9.84064 6.76352-5.32992 8.59648-3.28192 11.8784 1.23904 3.49184 17.408 5.3248 17.41824 8.80128 17.39776 11.89376 18.44224 14.12608 17.408 16.39424 17.41824 19.46624 17.39776 22.7328 18.44224 30.31552 20.68992 22.94784 14.14144 24.1664 13.11232 51.21536 21.7088 24.99072 7.5776 27.2384 7.78752 27.24864 5.31968 28.27264 4.3008 32.76288 1.23904 34.82624 1.21856 29.50656-2.24768 29.2864-2.25792h0.20992l0.41472 2.67776 0.4096 2.85184 0.6144 2.66752 0.60928 2.6624 26.22464-5.32992 26.01984-5.30944h0.19968l1.23392-0.62976 11.26912-4.3008 12.90752-3.072h-0.2048l1.2288-0.4096 11.06432-4.29056 12.9024-3.08224 0.60928-0.20992 1.23904-0.60928 22.72768-10.85952-4.70016-9.84064v-0.18944l5.11488 9.82016-0.41472 0.20992-4.70016-9.84064 5.11488 9.63072 21.7088-10.84928 0.62464-0.4096 0.39936-0.19968 20.48512-13.11232 1.024-0.61952 1.02912-1.2288 4.51072-4.3008h1.024l2.4576-1.43872 10.85952-6.74816 0.60928-0.20992 0.82432-0.60928 20.68992-17.42848-6.9632-8.39168 18.42688-17.408 12.91264-15.36 12.07808-14.1312 19.67104-28.07808 7.5776-14.1312 6.5536-13.10208 8.80128-26.01984 8.61184-1.2288 9.8304 3.28192 7.5776 4.3008 3.28192 4.3008 1.23392 6.55872-2.05824 9.8304 5.32992 14.14144 4.30592 2.03776 2.25792 1.2288 3.27168 2.03776 10.86464 4.3008h7.57248l2.25792 1.23904h10.8544l4.30592-3.28192 5.5296-4.3008 4.30592-5.5296 5.31456-6.54848 2.25792-8.81152v-2.66752l1.024-2.24768 2.25792-4.3008 2.04288-10.85952 2.25792-11.88864-1.23904-28.2624-2.04288-15.37024-1.23392-4.29056v-9.84064l-6.54848-30.52032-4.30592-16.18944-4.3008-15.36-13.10208-32.56832-13.11232-27.2384-15.1552-24.99072-15.16032-20.69504-14.336-14.1312-7.58784-6.56384-6.5536-4.28544-2.2528 2.24256-18.432 17.42336-18.44224 17.40288-21.51424 17.19808-10.84928 7.58784 9.6256 15.16032 8.81152 17.39776v1.23904l1.22368 2.03776 2.04288 4.31104 4.3008 8.6016 6.76352 17.41824 4.096 15.36 3.4816 17.408 2.05824 17.408 1.024 17.41824v14.14144l-4.30592 24.17152-2.25792 5.50912-1.024 6.56896-2.24768 13.10208-4.30592 10.86976-4.5056 12.07808-9.63072 23.97184-4.30592 4.31104-2.04288 2.24768-1.01888 1.01888v2.24768l-6.5536 10.88512-15.16544 21.7088-19.67104 19.67104-20.68992 19.46112-19.6608 12.90752-19.46112 13.11232-20.68992 11.26912-19.66592 10.84928-22.7328 8.6016-21.91872 7.5776-22.74304 6.54848-21.90848 5.5296-17.20832 1.03936-16.38912 2.24256-34.82624 2.048-57.96864-4.29056-26.01472-5.32992-24.18176-5.53984-23.96672-7.5776-22.7328-8.6016-22.73792-10.85952-20.69504-11.8784-20.68992-13.312-18.64192-14.14144-23.96672-21.7088-10.8544-10.85952-8.81152-9.84064-9.8304-12.06784-7.57248-10.85952-7.58272-12.07808-5.52448-10.86976-6.56384-13.11232-4.29056-12.08832-7.58784-24.99072-3.28192-14.14144-1.22368-13.10208-1.024-26.21952 2.24768-38.30784 8.60672-33.60256 12.90752-33.80224 19.46112-30.52032-4.30592-6.54848-31.54432-23.97184-35.84512-31.75424-11.88352 1.23904-10.86464 5.31968-13.10208 8.61184-11.88864 12.08832-19.6608 18.6368-16.384 23.97184-16.39424 26.0096-14.13632 30.72-14.336 30.53056-5.32992 14.14144-3.26656 15.36-6.55872 28.0576L1.024 721.92z m725.36576 191.9488l5.73952 9.21088-5.73952-9.21088 4.92544 9.62048-4.92544-9.62048z m20.70016-13.1072l5.5296 9.21088-5.5296-9.21088z m20.48512-14.56128l7.16288 8.62208-7.16288-8.62208z m0 0l5.53472 9.4208-5.53472-9.4208z m-85.84192 49.37728l4.71552 9.8304-4.71552-9.8304 2.67264 10.6496-2.67264-10.6496z m-22.31808 18.23232l1.024-0.4096-1.024 0.4096z m-24.18176 7.168l-1.42336-4.3008-1.23392-3.072-0.60928-2.048-0.21504-0.61952 0.21504 0.61952 0.60928 2.048 1.23392 3.072 1.42336 4.3008z m0 0" fill="#1F2124" p-id="8978"></path><path d="M201.1648 994.17088h196.24448v-1.03936h16.39424l6.54848-1.408 3.68128-2.67776-0.40448 0.22016 1.43872-0.82944 0.39424-0.20992 6.15424-3.68128 3.06688-5.5296v-0.20992l0.4096-0.19968 3.4816-5.32992 1.6384-5.9392 0.21504-0.4096h-0.21504l2.4576-6.54848 20.69504 6.74816-2.048 6.76864h-0.20992l-2.048 6.95808-0.4096 1.83808-4.9152 7.36768-4.30592 7.58784-1.4336 2.24768-2.45248 1.42848-8.3968 5.32992-6.5536 4.31104-1.43872 1.21856-1.8432 0.20992-8.20224 2.24256v1.44896h-219.5968l-14.336-1.2288h-1.23904l-1.22368-0.4096-13.11232-4.51072-1.43872-0.4096-1.63328-0.4096-1.4336-0.60928-1.6384-1.02912-3.28192-1.64864-3.06688-2.03776-6.15424-4.50048-5.3248-4.09088-1.21856-1.02912-0.82432-1.03936-6.5536-8.59136-5.12-6.95808 5.7344-6.7584 6.54848-7.58784 0.41472-0.60928-4.096-3.28192-0.4096-0.19968-0.82432-0.61952-6.5536-6.55872-9.4208-9.62048 11.0592-7.36768 7.78752-5.13024-6.144-6.13888-0.41472-0.61952-2.04288-3.27168-1.43872-2.4576-1.024-2.048-0.82432-2.048-0.4096-2.24768-0.2048-2.45248v-6.15936l4.9152-3.27168 8.81152-5.73952 1.024-0.60928 0.80896-0.20992 1.23392-0.4096-1.63328-2.4576-5.73952-7.57248 6.7584-6.7584 1.83808-1.6384 2.05312-1.64864 2.048-1.6384 2.04288-1.42848 4.30592-2.86208 4.5056-2.88256 0.41472-0.38912 1.4336-0.62976 7.57248-3.27168 2.25792-0.82944h42.39872v21.71904h-38.0928l-4.30592 1.83808-4.10624 2.87232 3.28704 1.62816v0.22016l9.41568 4.09088 53.88288 24.17152-58.79808-3.072-18.2272-1.21856-4.5056 1.82784 2.4576 2.4576 49.37216 29.51168-5.94432-0.20992-6.3488-0.19968-6.55872-0.4096-6.54848-0.22016h-6.76352l-3.072 0.22016-3.08224 0.19968-3.26656 0.20992-2.87232 0.60928-3.072 0.8192-2.87232 0.8192 1.43872-0.61952 11.4688 5.9392 60.02688 21.91872-66.16576 4.51072-3.08224 1.2288 0.20992 0.19968 6.9632 5.5296 9.4208 4.72064 11.47904 3.8912 12.72832 0.80896z m0 0" fill="#39474C" p-id="8979"></path><path d="M1583.68768 837.6576c-14.1312-19.6608-22.7328-29.0816-68.42368-73.94816-44.032 26.01984-83.97824 36.86912-138.27072 36.86912-165.10976 0-271.01696-121.06752-271.01696-309.52448 0-189.2864 106.9312-311.16288 271.84128-311.16288 165.10464 0 271.01184 121.0624 271.01184 309.51936 0 56.54528-9.41568 106.93632-28.27264 150.9888-14.9504 35.4304-28.25728 54.272-62.88384 91.1616 36.05504 35.4304 46.30016 44.8512 68.42368 62.04928l-42.40896 44.04736z m-131.0976-213.85728c13.312 15.7696 23.55712 27.44832 62.88384 66.78016 24.38656-26.0096 32.97792-39.33184 44.04736-64.53248 16.59392-40.76032 25.1904-85.62176 25.1904-137.45152 0-154.86464-80.09216-253.80352-205.87008-253.80352-126.592 0-208.9472 100.57728-208.9472 255.44192 0 155.69408 82.55488 255.44704 211.39968 255.44704 35.43552 0 63.71328-7.15776 92.79488-23.56224-26.62912-26.0096-40.76544-38.5024-64.51712-55.71072l43.01824-42.60864z m755.88608 213.85728c-14.13632-19.6608-22.72256-29.0816-68.40832-73.94816-44.04736 26.01984-83.98848 36.86912-138.28096 36.86912-165.10976 0-271.01696-121.06752-271.01696-309.52448 0-189.2864 106.94144-311.16288 271.84128-311.16288 165.09952 0 271.01696 121.0624 271.01696 309.51936 0 56.54528-9.42592 106.93632-28.26752 150.9888-14.95552 35.4304-28.26752 54.272-62.88896 91.1616 36.04992 35.4304 46.30528 44.8512 68.41856 62.04928l-42.41408 44.04736z m-131.30752-213.85728c13.312 15.7696 23.55712 27.44832 62.89408 66.78016 24.3712-26.0096 32.9728-39.33184 44.05248-64.53248 16.57856-40.76032 25.1904-85.62176 25.1904-137.45152 0-154.86464-80.1024-253.80352-205.88032-253.80352-126.59712 0-208.95232 100.57728-208.95232 255.44192 0 155.69408 82.56 255.44704 211.41504 255.44704 35.4304 0 63.70816-7.15776 92.78976-23.56224-26.624-26.0096-40.76032-38.5024-64.52736-55.71072l43.01824-42.60864z m368.73728-345.78944c-23.55712 44.04736-40.76032 67.6096-73.12384 104.4736-11.07456-18.8416-18.03264-27.44832-32.9984-41.58976 41.59488-44.04224 65.97632-81.72032 90.35776-139.904 8.59136-21.92384 14.11584-37.69344 18.00704-59.00288l55.11168 14.13632c-6.3488 11.88352-10.23488 19.66592-26.61888 59.00288a420.36736 420.36736 0 0 1-8.60672 18.01728h106.92608c36.86912 0 58.99776-1.63328 75.38688-3.8912V281.9072c-21.2992-3.07712-41.58464-3.89632-75.38688-3.89632h-129.05472z m-14.34624 299.48928c-29.89568 0-54.28224 1.6384-73.94304 3.8912v-51.01056c19.66592 2.46784 43.22304 3.90144 74.56256 3.90144h50.39616V414.848h-36.87936c-14.9504 0-38.50752 1.64352-51.81952 3.08224v-49.5872c14.9504 2.46272 29.0816 3.08224 52.64896 3.08224h128.02048c21.91872 0 37.69344-0.8192 52.64896-3.08224v48.76288a549.632 549.632 0 0 0-52.64896-2.4576h-43.2128v119.42912h37.6832c30.73536 0 50.39616-0.8192 72.31488-3.8912v51.00032c-25.20576-3.08224-47.11424-3.8912-72.31488-3.8912h-37.6832v179.24096c39.31648-17.20832 73.11872-34.62144 120.24832-63.69792l1.63328 55.71072c-26.63936 16.5888-73.95328 41.58976-119.43936 63.70816-36.03968 17.19808-39.32672 18.85184-47.104 22.73792l-21.92384-51.01056c11.88864-6.33856 15.76448-11.06944 18.02752-21.91872v-184.57088h-51.21536z m601.2416-5.5296c-9.43104 9.4208-11.06432 11.0592-25.19552 29.91104-31.34976 40.15104-57.3696 67.59936-94.23872 100.5824 30.73024 59.82208 62.88896 95.872 84.8128 95.872 17.2032 0 29.0816-39.33184 36.05504-128.84992 15.76448 14.14144 24.36608 18.8416 43.2128 28.26752-13.30688 109.16864-33.79712 152.4224-74.55744 152.4224-39.3472 0-91.16672-47.1296-127.21664-117.8112-72.31488 54.29248-130.49344 86.4512-215.30112 120.25856-11.06432-18.85184-17.20832-26.63936-33.80736-42.40896 92.80512-32.96768 154.87488-65.14176 228.60288-120.23808-20.47488-51.01056-28.26752-79.26784-43.20768-160.39936l-66.78528 14.9504c-26.0096 5.53984-51.82464 12.49792-69.85728 19.67104l-11.86816-54.29248c28.25728-1.6384 39.3216-3.89632 73.12384-11.0592l67.59936-14.96064c0-1.62816 0-1.62816-0.8192-4.70016-4.70016-36.05504-4.70016-36.05504-11.88352-114.72384l-44.03712 8.60672c-31.34976 6.35392-51.83488 11.06944-70.6816 17.2032l-10.24512-51.00544c18.85696-0.8192 40.15616-3.06688 71.5008-9.4208l50.39104-9.4208c-10.24512-131.93216-10.24512-131.93216-18.02752-169.82016h60.43136c-2.46272 16.5888-2.46272 26.624-2.46272 41.58464 0 21.30432 2.46272 73.95328 4.71552 110.8224 0 3.89632 0 5.5296 0.8192 7.78752l121.8816-23.56224c31.33952-6.3488 53.46816-11.87328 71.49568-18.84672l10.24512 51.00032c-23.56224 2.4576-31.33952 3.08224-73.95328 11.88864l-126.59712 24.3712c4.72576 44.04224 4.72576 44.04224 13.32224 118.6048l123.3152-26.624c36.87424-7.78752 49.57696-11.8784 70.6816-19.66592l11.0592 52.64896c-21.91872 1.64352-43.21792 5.53472-73.94304 11.88352l-124.14464 27.44832c11.87328 65.96096 21.2992 100.5824 35.44576 138.27072 44.85632-40.15104 80.08704-83.97824 91.97056-112.4608l48.14848 26.2144z m-136.63744-414.8224c40.14592 18.02752 65.95584 32.98304 109.99808 64.53248l-30.72 35.4304c-36.06016-29.9008-65.152-47.92832-107.75552-67.59424l28.47744-32.36864z m808.53504 68.224c29.08672 0 53.46304-1.64864 77.02016-4.71552-1.63328 16.59904-2.45248 28.26752-3.06688 58.99776-5.5296 161.82784-22.74304 301.73696-40.77056 336.36864-9.43616 19.6608-23.552 29.91104-44.86656 33.80224-9.42592 1.62816-21.28896 2.4576-45.47584 2.4576-17.2032 0-29.9008-0.82944-54.29248-2.4576-4.70016-26.01984-6.35392-32.9984-14.9504-53.46816 29.09696 4.70016 55.72608 7.15776 77.0304 7.15776 34.62656 0 42.40384-7.7824 50.39104-47.92832 11.06432-55.71584 20.48512-170.42944 22.72256-285.14304h-410.9056c-15.77984 29.08672-32.9984 55.71072-59.01312 92.79488 16.59392 1.63328 33.81248 2.4576 59.82208 2.4576h198.08768c23.57248 0 39.33696-0.82944 64.53248-3.89632-2.4576 20.48512-3.06688 32.16896-3.06688 56.53504v104.48384c0 30.72 0.80896 42.39872 2.45248 55.11168-17.20832-2.4576-36.05504-3.08224-63.70816-3.08224h-220.01152v167.36256c0 18.0224 3.072 26.0096 14.96576 30.72 19.65568 7.78752 62.06464 11.06944 170.42432 11.06944 152.40192 0 223.07328-3.072 252.16512-11.06944 35.43552-9.41056 44.87168-34.6112 51.83488-141.33248 21.91872 11.0592 32.14848 14.1312 51.82976 17.19808-11.06432 89.51808-18.02752 116.352-35.44576 141.34784-13.32224 17.19808-37.69856 29.09184-72.30976 33.792-43.22816 5.5296-102.2208 7.17824-231.07072 7.17824-145.44896 0-199.52128-4.72064-228.60288-21.31968-16.59904-8.58112-22.74816-26.0096-22.74816-60.42112V417.10592c0-3.072 0-8.60672-0.8192-17.2032v-21.09952c-22.72768 29.90592-37.68832 47.11424-69.23776 80.09216-11.86816-18.02752-23.55712-30.73024-37.69856-40.76544 67.60448-63.69792 117.17632-131.9168 157.96224-220.00128 14.11072-31.33952 21.29408-52.65408 23.54688-73.95328l58.99776 11.8784c-6.35392 12.50304-7.78752 15.77472-17.20832 38.51776-7.7824 18.8416-16.5888 39.32672-22.72768 51.00544h364.21632v-0.2048z m-408.66816 183.94624v121.0624h232.48896V409.3184h-232.48896z m0 0" fill="#231815" p-id="8980"></path></svg>