<svg width="104" height="89" xmlns="http://www.w3.org/2000/svg"><g fill="none" fill-rule="evenodd"><path d="M74.793 18.181c3.007 1.736 5.468 5.998 5.468 9.47v33.327c0 3.473-2.461 7.735-5.468 9.471L45.93 87.113c-3.008 1.736-7.929 1.736-10.936 0L6.133 70.449C3.126 68.713.665 64.451.665 60.98V27.65c0-3.472 2.46-7.734 5.468-9.47L34.995 1.517c3.007-1.736 7.928-1.736 10.936 0l28.862 16.664z" fill="#36F"/><path d="M23.615 37.922c.047-1.14.503-1.741 1.366-1.802h4.746c.766.06 1.174.572 1.223 1.532-.049 1.022-.457 1.562-1.223 1.621h-3.38v3.335h2.876c.815.06 1.246.6 1.295 1.621-.049 1.023-.48 1.563-1.295 1.623h-2.876v5.046c-.049 1.08-.503 1.622-1.367 1.622-.862 0-1.319-.541-1.366-1.622V37.922zm8.126 0c0-1.2.455-1.802 1.366-1.802h3.236c3.068 0 4.602 1.743 4.602 5.226-.048 2.343-1.175 3.784-3.38 4.325l3.093 4.235c.287.302.406.631.36.992-.098 1.022-.552 1.562-1.367 1.622-.48 0-.84-.15-1.079-.45l-4.099-6.218v5.046c-.048 1.081-.503 1.622-1.366 1.622-.863 0-1.32-.54-1.367-1.622V37.922zm2.732 5.407h1.87c1.102-.06 1.678-.72 1.725-1.982-.048-1.321-.623-2.013-1.725-2.073h-1.87v4.055zm7.479-5.226c0-1.321.455-1.983 1.366-1.983h4.603c.814.06 1.246.572 1.294 1.532-.048 1.022-.48 1.563-1.294 1.622h-3.236v3.334h3.02c.815.06 1.27.601 1.367 1.622-.097 1.022-.552 1.562-1.367 1.622h-3.02v3.515h3.38c.814 0 1.246.51 1.294 1.531-.048 1.022-.48 1.563-1.294 1.622h-4.746c-.863-.059-1.32-.63-1.367-1.712V38.103zm8.486 0c0-1.321.455-1.983 1.366-1.983h4.603c.814.06 1.246.572 1.294 1.532-.048 1.022-.48 1.563-1.294 1.622H53.17v3.334h3.02c.815.06 1.27.601 1.367 1.622-.098 1.022-.552 1.562-1.367 1.622h-3.02v3.515h3.38c.814 0 1.246.51 1.294 1.531-.048 1.022-.48 1.563-1.294 1.622h-4.747c-.863-.059-1.32-.63-1.367-1.712V38.103zm12.687 14.834h37.031v23.25H63.125z" fill="#FFF"/><path d="M100.494 48.656c1.472 0 2.677 1.249 2.632 2.72V78.99c0 1.517-1.204 2.766-2.632 2.766H63.715c-1.45 0-2.632-1.227-2.632-2.766V51.421c0-1.516 1.182-2.765 2.632-2.765h36.78zm-26.92 10.46h.089l2.52 7.138h-5.197l2.587-7.138zm4.75 13.182h2.587L74.98 56.529h-2.677l-5.955 15.769h2.476l1.427-4.06h6.647l1.427 4.06zm11.71-13.74c1.918 0 3.323.514 4.193 1.384.892.936 1.338 2.43 1.338 4.416 0 1.985-.446 3.48-1.338 4.416-.892.937-2.32 1.427-4.26 1.427H87.2V58.56h2.833zm6 11.599c1.226-1.383 1.873-3.301 1.873-5.732 0-2.543-.647-4.417-1.829-5.755-1.271-1.45-3.167-2.14-5.643-2.14h-5.598v15.768h5.554c2.475 0 4.349-.714 5.642-2.141zm-34.95 18.68v-4.029h42.02v4.029h-42.02z" fill="#0CF"/></g></svg>