<svg width="104" height="89" xmlns="http://www.w3.org/2000/svg"><g fill="none" fill-rule="evenodd"><path d="M75.067 18.187c3.007 1.736 5.468 5.998 5.468 9.47v33.328c0 3.472-2.46 7.734-5.468 9.47L46.205 87.12c-3.007 1.736-7.928 1.736-10.936 0L6.407 70.455C3.4 68.72.94 64.457.94 60.985V27.658c0-3.473 2.46-7.735 5.468-9.47L35.27 1.522c3.008-1.736 7.929-1.736 10.936 0l28.862 16.664z" fill="#36F"/><path d="M50.77 48.835h-2.144v1.43h2.144v-1.43zm.98-3.674h2.144v-1.43h-2.145v1.43zm-3.124 3.674v-3.088c0-1.11.898-2.012 2.008-2.016h1.115V33.553a.586.586 0 00-.579-.586H31.772a.586.586 0 00-.58.586v7.827h1.865a.715.715 0 01.53-1.194h.715a.715.715 0 00-.53 1.194h1.652c1.11 0 2.009.9 2.009 2.008v5.447h11.193zm0 1.43h-6.083v1.286h2.259a.715.715 0 010 1.43H38.14a.715.715 0 01-.707-.615v3.674c0 1.11-.898 2.011-2.009 2.015H25.11a2.016 2.016 0 01-2.015-2.015V43.388a2.008 2.008 0 012.015-2.008h3.939v-7.827a2.01 2.01 0 012.008-2.015h20.828a2.009 2.009 0 012.009 2.015v10.178h1.558c1.113 0 2.015.903 2.015 2.016V56.04a2.015 2.015 0 01-2.015 2.015h-4.818a2.016 2.016 0 01-2.008-2.015v-5.776zm-13.338 0h2.145v-1.43h-2.145v1.43zm-6.24-7.456h2.145V41.38h-2.144v1.43zm8.385 9.357a.715.715 0 01.707-.615h2.26v-1.287h-2.966v1.902zm8.212-7.262a.715.715 0 100-1.43h.715a.715.715 0 010 1.43h-.715zm2.995-3.288a.715.715 0 000-1.43h.715a.715.715 0 010 1.43h-.715zm-14.338-3.281h-.715a.715.715 0 110-1.43h.715a.715.715 0 100 1.43zm14.338 0a.715.715 0 000-1.43h.715a.715.715 0 010 1.43h-.715zM33.057 41.38a.71.71 0 00.53.236h.715a.71.71 0 01-.53-.236h-.715zm4.376 10.986v-.2a.722.722 0 000 .2zm-2.145-2.102h-4.231a2.007 2.007 0 01-2.008-2.008v-5.447h-3.224a.586.586 0 00-.586.58v12.65c0 .324.262.587.586.587h8.884a.586.586 0 00.58-.586v-5.776zm-4.095-7.455v5.447a.578.578 0 00.579.579h3.516v-5.447a.58.58 0 00-.579-.579h-3.516zm-.923 13.21a1.3 1.3 0 01-1.657-1.256 1.3 1.3 0 011.658-1.247 1.302 1.302 0 110 2.502zm4.032-11.115h-.715a.715.715 0 010-1.43h.715a.715.715 0 000 1.43zM30.27 56.018a1.301 1.301 0 000-2.502 1.301 1.301 0 000 2.502zm.351-1.38a.128.128 0 01.129.13c0 .135-.25.142-.25 0a.121.121 0 01.121-.13zm-.715 0a.128.128 0 01.129.13c0 .135-.25.142-.25 0a.122.122 0 01.121-.13zm20.864-5.803h.4a.579.579 0 00.58-.58v-3.094h-.401a.586.586 0 00-.579.586v3.088zm3.124-3.674v3.095c0 1.11-.9 2.008-2.009 2.008H50.77v5.747c0 .321.258.582.579.586l3.388.029a.587.587 0 00.586-.586V45.747a.586.586 0 00-.586-.586h-.843zm-.844 11.25a1.3 1.3 0 01-1.658-1.255 1.301 1.301 0 011.658-1.247 1.302 1.302 0 011.275 2.174 1.301 1.301 0 01-1.275.328zm0 0a1.302 1.302 0 000-2.502 1.301 1.301 0 000 2.502zm.35-1.38a.128.128 0 01.13.13c0 .135-.251.135-.251 0a.13.13 0 01.121-.13zm-.714 0a.128.128 0 01.128.13c0 .135-.25.135-.25 0a.13.13 0 01.122-.13z" fill="#FFF"/><path d="M81.656 45.063c11.874 0 21.5 9.625 21.5 21.5 0 11.874-9.626 21.5-21.5 21.5s-21.5-9.626-21.5-21.5c0-11.875 9.626-21.5 21.5-21.5z" fill="#0CF"/><path d="M87.182 68.664v3.126H84.99v4.85h-3.36v-4.85h-7.246v-1.84l3.973-13.763h3.42l-3.653 12.477h3.565l.467-6.983h2.834v6.983h2.192z" fill="#FFF"/></g></svg>