<svg width="97" height="89" xmlns="http://www.w3.org/2000/svg"><g fill="none" fill-rule="evenodd"><path d="M74.704 18.187c3.007 1.736 5.468 5.998 5.468 9.47v33.328c0 3.472-2.46 7.734-5.468 9.47L45.842 87.12c-3.008 1.736-7.929 1.736-10.936 0L6.044 70.455C3.037 68.72.576 64.457.576 60.985V27.658c0-3.473 2.46-7.735 5.468-9.47L34.906 1.522c3.007-1.736 7.928-1.736 10.936 0l28.862 16.664z" fill="#36F"/><path d="M42.865 55.617v3.574h-3.05V55.74c-2.096-.246-4.468-1.201-6.102-2.68l2.003-3.051c1.695 1.325 3.328 2.095 5.084 2.095 2.157 0 3.143-.955 3.143-2.711 0-4.16-9.367-3.79-9.367-10.23 0-3.359 2.003-5.67 5.238-6.286v-3.574h3.05v3.513c2.22.308 3.79 1.417 5.116 2.803l-2.28 2.589c-1.264-1.171-2.373-1.819-3.945-1.819-1.818 0-2.835.864-2.835 2.558 0 3.821 9.368 3.236 9.368 10.138 0 3.358-1.88 5.854-5.423 6.532zm22.721.233l16.09-3.986 13.655 4.65.96 18.01-16.902 12.4-14.393-14.171z" fill="#FFF"/><path d="M80.213 49.705l16.786 4.571v18.286c0 10.866-16.786 15.812-16.786 15.812s-16.787-5.096-16.787-15.812V54.276l16.787-4.57zm12.964 23.156V69.04H80.213V54.052L67.248 56.6v12.44h12.965v14.987c3.372-.75 12.964-7.194 12.964-11.166z" fill="#0CF"/></g></svg>